<svg width="121" height="120" viewBox="0 0 121 120" fill="none" xmlns="http://www.w3.org/2000/svg">
<path d="M18.889 78.4804C18.164 80.6964 17.4401 82.9104 16.7161 85.1264C17.3281 85.2094 17.941 85.2914 18.553 85.3744C18.639 83.3754 19.5941 81.7234 21.2851 80.6474C20.8161 80.3774 20.3471 80.1094 19.8781 79.8394C19.9401 82.2534 19.8411 84.6494 19.5801 87.0484C19.4901 87.8804 20.6481 88.2474 21.1761 87.7094C23.1031 85.7464 24.526 83.5264 25.553 80.9754C24.952 80.8104 24.3511 80.6444 23.7501 80.4784C23.1771 82.4614 22.6031 84.4444 22.0301 86.4274C21.7591 87.3674 22.9211 87.9314 23.5931 87.3364C24.6391 86.4114 25.684 85.4874 26.73 84.5624C26.24 84.4994 25.751 84.4364 25.261 84.3724C25.679 85.0704 26.096 85.7674 26.514 86.4634C27.131 87.4954 28.7491 86.5564 28.128 85.5204C27.7111 84.8234 27.293 84.1264 26.876 83.4294C26.552 82.8884 25.8581 82.8414 25.4081 83.2404C24.3621 84.1644 23.3161 85.0894 22.2711 86.0144C22.7921 86.3184 23.3131 86.6204 23.8331 86.9244C24.4071 84.9414 24.98 82.9584 25.553 80.9754C25.895 79.7904 24.1871 79.3914 23.7501 80.4784C22.8491 82.7154 21.5411 84.6684 19.8541 86.3874C20.3861 86.6084 20.9181 86.8284 21.4501 87.0484C21.7111 84.6494 21.81 82.2534 21.748 79.8394C21.73 79.1574 20.9581 78.6394 20.3411 79.0314C18.0801 80.4704 16.798 82.6974 16.683 85.3744C16.636 86.4644 18.202 86.5944 18.519 85.6234C19.244 83.4074 19.9681 81.1934 20.6921 78.9774C21.0671 77.8304 19.262 77.3394 18.889 78.4804Z" fill="#F3A9B1"/>
<path d="M33.8031 65.4916C34.1641 65.2156 34.5261 64.9396 34.8871 64.6626C34.4291 64.3116 33.9721 63.9586 33.5141 63.6076C33.3331 64.8186 33.1531 66.0295 32.9731 67.2395C32.8011 68.3965 34.4781 68.9355 34.7761 67.7375C35.2041 66.0165 35.9001 64.5156 36.9231 63.0696C36.3531 62.8286 35.7841 62.5886 35.2141 62.3486C34.7071 64.4476 34.4801 66.5146 34.5351 68.6756C34.5551 69.4426 35.5711 69.9645 36.1311 69.3365C38.4051 66.7875 39.9601 63.8866 40.7821 60.5696C40.1811 60.4046 39.5791 60.2386 38.9781 60.0726C38.6131 61.8496 38.2471 63.6255 37.8821 65.4035C37.6821 66.3735 39.1211 67.1436 39.5911 66.1236C40.4731 64.2046 41.6401 62.5866 43.1961 61.1556C42.6751 60.8526 42.1551 60.5495 41.6341 60.2455C40.8231 62.5125 40.0121 64.7796 39.2011 67.0456C38.8121 68.1326 40.3231 68.5315 40.9101 67.7655C42.2311 66.0405 43.5521 64.3156 44.8731 62.5906H43.2591C43.7821 63.7516 44.0691 64.8646 44.2391 66.1156C44.4011 67.3036 46.2031 66.7976 46.0421 65.6186C45.8501 64.2076 45.4561 62.9416 44.8731 61.6476C44.5511 60.9306 43.6331 61.1576 43.2591 61.6476C41.9381 63.3716 40.6171 65.0966 39.2951 66.8226C39.8651 67.0626 40.4341 67.3026 41.0041 67.5426C41.8151 65.2766 42.6261 63.0095 43.4371 60.7425C43.7701 59.8125 42.5131 59.2445 41.8741 59.8335C40.2051 61.3685 38.9241 63.1175 37.9761 65.1795C38.5451 65.4195 39.1151 65.6596 39.6851 65.9006C40.0501 64.1226 40.4161 62.3466 40.7821 60.5696C41.0221 59.4006 39.2701 58.8956 38.9781 60.0726C38.2341 63.0776 36.8711 65.7026 34.8091 68.0146C35.3411 68.2346 35.8731 68.4546 36.4051 68.6756C36.3541 66.6886 36.5501 64.7806 37.0171 62.8456C37.2751 61.7786 35.9101 61.2746 35.3081 62.1246C34.1891 63.7066 33.4401 65.3615 32.9731 67.2395C33.5741 67.4055 34.1751 67.5715 34.7761 67.7375C34.9561 66.5265 35.1371 65.3155 35.3171 64.1045C35.4191 63.4175 34.6751 62.4896 33.9431 63.0486C33.5821 63.3246 33.2201 63.6006 32.8591 63.8766C31.9151 64.5976 32.8461 66.2226 33.8031 65.4916Z" fill="#F3A9B1"/>
<path d="M44.9061 94.7353C43.6391 97.0083 42.721 99.2583 42.042 101.781C41.726 102.958 43.4471 103.401 43.8461 102.279C44.7971 99.6053 46.051 97.2493 47.691 94.9553C47.121 94.7153 46.552 94.4753 45.982 94.2353C45.507 97.1323 45.0321 100.029 44.5571 102.926C44.3661 104.092 45.997 104.597 46.36 103.423C47.589 99.4503 49.3811 95.9933 51.8751 92.6853C51.3061 92.4453 50.7361 92.2043 50.1661 91.9643C49.3081 96.2673 48.2481 100.5 46.9761 104.698C46.6771 105.689 48.2501 106.405 48.6851 105.419C50.3971 101.543 52.459 97.9503 54.943 94.5183C54.374 94.2783 53.8041 94.0373 53.2341 93.7983C52.6791 97.1243 51.8641 100.32 50.7571 103.507C50.3621 104.647 52.1661 105.135 52.5601 104.004C53.6831 100.779 55.492 98.2983 58.162 96.1673C57.63 95.9473 57.098 95.7263 56.566 95.5063C56.233 99.1873 55.3791 102.515 53.8881 105.895C53.4921 106.791 54.578 107.874 55.357 107.028C58.981 103.087 62.606 99.1473 66.23 95.2053C65.709 95.0693 65.188 94.9314 64.667 94.7934C65.518 97.6344 65.142 100.004 63.159 102.371C62.3911 103.288 63.7071 104.617 64.4811 103.694C66.8291 100.892 67.5281 97.8273 66.4711 94.2963C66.2771 93.6483 65.3981 93.3513 64.9081 93.8833C61.2841 97.8243 57.6591 101.765 54.0351 105.705C54.5241 106.083 55.013 106.46 55.503 106.838C57.116 103.183 58.0771 99.4833 58.4361 95.5063C58.5171 94.6073 57.4011 94.3974 56.8401 94.8454C53.9171 97.1764 51.9851 99.9803 50.7571 103.507C51.3581 103.673 51.9591 103.838 52.5601 104.004C53.6661 100.818 54.481 97.6233 55.037 94.2953C55.214 93.2393 53.9641 92.6963 53.3281 93.5743C50.8451 97.0073 48.782 100.6 47.071 104.476C47.64 104.716 48.2101 104.955 48.7801 105.196C50.0511 100.997 51.112 96.7643 51.969 92.4613C52.184 91.3813 50.8931 90.9034 50.2601 91.7414C47.6721 95.1744 45.8251 98.8274 44.5571 102.926C45.1581 103.092 45.759 103.257 46.36 103.423C46.835 100.526 47.3101 97.6293 47.7851 94.7323C47.9571 93.6823 46.71 93.1244 46.076 94.0124C44.325 96.4624 43.048 98.9553 42.042 101.781C42.643 101.948 43.2451 102.114 43.8461 102.279C44.4741 99.9423 45.338 97.8003 46.521 95.6783C47.107 94.6263 45.4931 93.6823 44.9061 94.7353Z" fill="#F3A9B1"/>
<path d="M66.0492 55.1993C65.5952 56.2703 65.3972 57.2163 65.5382 58.3813C65.6422 59.2393 66.7762 59.7323 67.2812 58.8533C67.4872 58.3823 67.8282 58.0513 68.3042 57.8583C67.8472 57.6723 67.3892 57.4863 66.9312 57.2993C67.1382 58.2523 67.3451 59.2053 67.5521 60.1583C67.7161 60.9133 68.6081 60.9763 69.1151 60.5723C70.7381 59.2783 72.3202 57.9393 73.8662 56.5543C73.3342 56.3333 72.8022 56.1133 72.2702 55.8933C72.1642 56.9263 72.0572 57.9593 71.9522 58.9923C71.8592 59.8993 73.3162 60.2913 73.6942 59.4643C73.9452 59.5353 74.1951 59.6063 74.4461 59.6773C74.3161 60.8723 76.1871 60.8633 76.3161 59.6773C76.5961 57.0893 73.1601 56.1543 72.0791 58.5203C72.6601 58.6773 73.2412 58.8343 73.8222 58.9923C73.9282 57.9593 74.0342 56.9263 74.1402 55.8933C74.2292 55.0263 73.0892 54.7423 72.5442 55.2323C70.9982 56.6163 69.4151 57.9553 67.7921 59.2493C68.3131 59.3863 68.8341 59.5243 69.3551 59.6613C69.1481 58.7083 68.9412 57.7553 68.7342 56.8023C68.6022 56.1943 67.8642 55.9693 67.3612 56.2433C66.6102 56.6533 66.0932 57.1663 65.6662 57.9083C66.2472 58.0673 66.8281 58.2243 67.4091 58.3813C67.3111 57.5793 67.3402 56.9063 67.6632 56.1433C68.1282 55.0483 66.5182 54.0943 66.0492 55.1993Z" fill="#F3A9B1"/>
<path d="M92.0301 70.4413C91.3471 71.5483 91.2231 72.4484 91.4741 73.7184C91.6321 74.5224 92.8031 74.6083 93.1821 73.9413C94.1761 72.1983 95.1691 70.4543 96.1631 68.7113C95.5821 68.5533 95.0011 68.3963 94.4201 68.2393C94.4841 70.4013 94.2411 72.4454 93.6651 74.5304C93.3901 75.5284 94.8841 76.2153 95.3741 75.2503C96.4961 73.0383 97.7921 70.9594 99.2831 68.9784C98.7131 68.7384 98.1441 68.4974 97.5741 68.2574C97.0851 70.5344 96.5961 72.8123 96.1061 75.0883C95.8941 76.0773 97.3001 76.7934 97.8151 75.8094C98.8771 73.7804 100.207 72.0043 101.858 70.4193C101.337 70.1163 100.816 69.8133 100.295 69.5103C100.076 71.0463 99.8561 72.5834 99.6361 74.1194C99.5101 75.0064 100.463 75.7184 101.199 75.0304C102.223 74.0724 103.245 73.1153 104.269 72.1573C103.78 72.0943 103.29 72.0314 102.801 71.9684C103.306 73.0184 103.244 73.9873 102.615 74.8733C102.011 75.9173 103.626 76.8604 104.229 75.8174C105.158 74.2124 105.176 72.6913 104.415 71.0243C104.154 70.4523 103.347 70.4604 102.947 70.8354C101.923 71.7924 100.9 72.7494 99.8771 73.7074C100.398 74.0104 100.919 74.3144 101.439 74.6164C101.659 73.0804 101.879 71.5434 102.099 70.0074C102.224 69.1294 101.267 68.3953 100.536 69.0973C98.7681 70.7933 97.3371 72.6953 96.2011 74.8653C96.7701 75.1063 97.3401 75.3454 97.9101 75.5854C98.3991 73.3094 98.8881 71.0314 99.3771 68.7544C99.6101 67.6714 98.2941 67.2014 97.6681 68.0334C96.1781 70.0154 94.8811 72.0954 93.7601 74.3064C94.3291 74.5464 94.8991 74.7863 95.4681 75.0273C96.0861 72.7883 96.3581 70.5593 96.2901 68.2393C96.2641 67.3323 95.0191 66.9414 94.5481 67.7674C93.5551 69.5104 92.5611 71.2543 91.5681 72.9973C92.1381 73.0723 92.7071 73.1463 93.2771 73.2213C93.3991 72.6093 93.5221 71.9963 93.6441 71.3853C94.2781 70.3583 92.6611 69.4173 92.0301 70.4413Z" fill="#F3A9B1"/>
<path d="M94.8691 93.5731C91.5341 89.5541 84.7831 90.3301 83.6331 95.8921C82.9911 99.0001 84.6521 100.262 86.2791 102.505C91.9341 110.3 75.7031 111.745 72.0121 112.452C52.3451 116.218 25.9261 117.038 13.9071 97.4541C2.43406 78.7591 17.0941 60.3141 34.2311 52.3231C50.6051 44.6881 70.5081 44.5421 87.5741 49.9121C98.1631 53.2451 108.578 60.0451 111.255 71.5231C113.89 82.8201 104.427 95.8731 92.0771 91.3511C90.0391 90.6051 89.1611 93.8571 91.1821 94.5961C99.1781 97.5251 108.104 93.5861 112.448 86.4451C117.174 78.6751 115.297 68.6131 110.389 61.4141C99.1151 44.8771 73.6451 41.4471 55.2541 43.3301C36.8931 45.2101 16.3231 54.3681 8.51607 72.2861C-0.343927 92.6191 17.2241 111.671 36.1551 116.353C49.5451 119.663 63.3831 117.688 76.6821 114.94C81.3751 113.971 88.0561 113.6 90.8451 109.018C91.7911 107.463 92.1831 105.718 91.6551 103.948C91.3671 102.986 91.1641 102.724 90.4911 101.83C90.1411 101.334 89.7101 100.914 89.1971 100.571C86.6521 99.0581 87.7491 97.5191 92.4891 95.9521C93.8731 97.6211 96.2431 95.2291 94.8691 93.5731Z" fill="#94C6E4"/>
<path d="M76.0051 53.7627C72.6651 53.4477 67.9801 53.3907 64.8981 55.0087C63.0051 56.0027 62.551 58.2017 64.136 59.7777C66.56 62.1847 78.5991 61.9217 76.4061 56.6507C75.9501 55.5547 74.14 56.0347 74.602 57.1477C75.432 59.1417 70.7031 59.3747 69.8701 59.3907C68.5471 59.4157 62.8241 58.6017 66.6411 56.3917C67.8171 55.7107 70.0971 55.6457 71.3711 55.5507C72.9231 55.4337 74.4571 55.4867 76.0051 55.6327C77.2031 55.7457 77.1951 53.8757 76.0051 53.7627Z" fill="#94C6E4"/>
<path d="M41.5872 59.5452C38.5892 57.3652 33.1331 60.7721 32.0231 63.8421C30.3561 68.4511 35.6281 71.3772 39.5181 70.8832C43.1771 70.4172 49.2982 67.5472 48.9522 63.0302C48.5262 57.4612 41.6681 58.7071 38.3021 60.1051C37.2061 60.5591 37.6871 62.3692 38.7991 61.9072C40.9131 61.0312 44.4941 59.4512 46.3931 61.6542C49.1871 64.8952 43.4531 67.8352 41.2861 68.5412C38.7731 69.3602 32.6332 69.3021 33.6812 64.7121C34.1512 62.6561 38.7301 59.7692 40.6431 61.1592C41.6181 61.8682 42.5522 60.2462 41.5872 59.5452Z" fill="#94C6E4"/>
<path d="M27.492 77.7395C24.203 76.7025 20.3781 77.6685 18.2931 80.5305C16.0691 83.5835 17.21 87.2145 20.833 88.3285C23.949 89.2865 27.647 88.1555 29.617 85.5345C31.485 83.0495 31.07 78.5215 27.162 78.7495C25.966 78.8205 25.958 80.6905 27.162 80.6195C30.344 80.4345 28.586 83.9815 27.73 84.8805C27.203 85.4335 26.5591 85.8805 25.8661 86.1995C24.1711 86.9845 21.7221 87.1445 20.1731 85.9555C17.6831 84.0445 19.631 81.1425 21.705 79.9895C23.374 79.0625 25.198 78.9765 26.995 79.5425C28.145 79.9055 28.637 78.1005 27.492 77.7395Z" fill="#94C6E4"/>
<path d="M56.8451 91.4326C51.8841 89.3266 44.263 91.7567 41.935 96.9047C39.484 102.325 45.075 106.745 49.972 107.14C55.415 107.579 64.1551 105.635 65.7491 99.5076C67.6801 92.0856 58.7171 90.9647 53.6191 91.5067C52.4341 91.6327 52.4211 93.5047 53.6191 93.3767C55.2211 93.2067 56.712 93.0396 58.32 93.2236C59.986 93.1706 61.4791 93.7246 62.8011 94.8836C62.9871 96.7416 63.173 98.6007 63.36 100.458C62.38 103.469 57.045 104.542 54.263 105.001C52.513 105.289 50.489 105.484 48.737 105.097C47.209 104.91 46.005 104.217 45.123 103.015C43.508 102.074 43.2711 100.691 44.4131 98.8626C44.9351 95.8036 45.445 95.0867 48.078 93.7597C50.537 92.5227 53.226 91.9116 55.901 93.0466C56.996 93.5116 57.9501 91.9016 56.8451 91.4326Z" fill="#94C6E4"/>
<path d="M100.121 67.7952C96.3881 67.7912 92.8151 69.7532 91.0791 73.1232C88.9031 77.3472 93.2961 78.4343 96.8181 78.4703C100.469 78.5073 104.574 76.3233 104.959 72.3223C105.29 68.8913 102.151 66.1032 98.8241 66.8562C97.6511 67.1202 98.1471 68.9243 99.3211 68.6583C103.239 67.7733 103.86 72.6662 101.742 74.8172C99.8121 76.7772 96.8711 76.8502 94.3421 76.2872C92.8501 75.9552 91.9521 75.3622 92.8521 73.7582C93.2661 73.0202 93.8081 72.3542 94.4341 71.7842C96.0151 70.3472 97.9981 69.6632 100.121 69.6652C101.325 69.6662 101.327 67.7962 100.121 67.7952Z" fill="#94C6E4"/>
<path d="M90.9331 60.8349C94.0551 51.7599 97.2631 42.7149 100.576 33.7079C103.896 24.6809 106.725 14.8038 111.062 6.20884C112.367 3.62284 109.799 10.1309 109.567 10.7499C108.887 12.5659 108.206 14.3809 107.526 16.1969C105.712 21.0369 103.897 25.8778 102.083 30.7188C100.495 34.9548 98.9081 39.1919 97.3201 43.4269C96.4131 45.8479 95.5061 48.2679 94.5991 50.6889C94.1911 51.7759 91.0331 58.2579 91.3941 58.9259C90.3651 57.0199 87.4571 58.7169 88.4881 60.6249C89.8281 63.1089 92.6791 62.8579 94.2631 60.6679C95.7041 58.6729 96.3131 55.6698 97.1641 53.3988C98.5251 49.7678 99.8861 46.1368 101.246 42.5058C103.854 35.5468 106.463 28.5889 109.071 21.6299C110.318 18.3019 111.566 14.9729 112.813 11.6449C113.533 9.72487 115.673 6.32183 115.076 4.24283C114.393 1.86683 111.646 1.30484 109.75 2.57584C108.117 3.67084 107.536 5.97385 106.862 7.68985C105.458 11.2629 104.081 14.8458 102.714 18.4328C97.4741 32.1838 92.4741 46.0258 87.6871 59.9408C86.9811 61.9928 90.2311 62.8749 90.9331 60.8349Z" fill="#94C6E4"/>
<path d="M90.323 59.8229C80.317 56.1319 79.058 71.8739 70.615 72.4299C69.686 72.4899 69.3471 73.6529 70.1431 74.1719C81.0271 81.2809 94.962 72.6449 93.227 59.6939C93.07 58.5189 91.197 58.5029 91.357 59.6939C92.9 71.2069 80.8861 78.9579 71.0871 72.5569C70.9301 73.1379 70.772 73.7189 70.615 74.2999C73.617 74.1019 75.8651 72.6979 77.8091 70.4089C80.9271 66.7409 83.684 59.3609 89.826 61.6249C90.956 62.0419 91.444 60.2359 90.323 59.8229Z" fill="#94C6E4"/>
</svg>
