<svg width="121" height="120" viewBox="0 0 121 120" fill="none" xmlns="http://www.w3.org/2000/svg">
<path d="M6.16342 63.9868C8.32989 63.8042 10.4964 63.6517 12.6688 63.5745C14.5654 63.506 18.2093 62.8349 20.0021 63.5394C23.5244 64.9243 22.6502 74.8234 22.8002 78.2771C23.0067 83.0668 23.1361 87.8591 23.1884 92.6532C23.2124 94.9096 23.2201 97.1661 23.2107 99.4225C23.197 102.441 23.8826 104.187 20.5617 104.735C16.1894 105.457 11.4459 105.253 7.01784 105.505C3.64044 105.698 2.74574 105.939 2.91371 102.431C3.01998 100.211 3.15023 97.9913 3.30449 95.7726C4.01151 85.5812 5.24558 75.4413 6.93214 65.3665C7.10097 64.3578 5.55666 63.9242 5.38698 64.9406C3.0791 78.7296 1.65735 92.6248 1.13887 106.596C1.12344 107.012 1.51853 107.422 1.93931 107.398C9.27517 106.98 16.611 106.563 23.9469 106.145C24.3848 106.12 24.7413 105.798 24.7482 105.343C24.9393 93.2162 24.6796 81.0889 23.9023 68.9839C23.76 66.7694 24.3865 63.0184 21.7872 62.0585C20.1409 61.4509 17.6497 61.8837 15.928 61.8991C12.6654 61.9291 9.41399 62.1117 6.16342 62.3842C5.14359 62.4699 5.13417 64.0733 6.16342 63.9868Z" fill="#F3A9B1"/>
<path d="M11.1304 68.0392V70.9238C11.1304 71.9548 12.733 71.9565 12.733 70.9238V68.0392C12.733 67.0073 11.1304 67.0056 11.1304 68.0392Z" fill="#F3A9B1"/>
<path d="M18.8142 69.4827C18.9299 70.4905 18.8373 71.4957 18.4388 72.4367C18.2683 72.8378 18.3214 73.2903 18.7259 73.5336C19.0601 73.7333 19.6532 73.6433 19.822 73.2457C20.3336 72.0408 20.5667 70.7904 20.4167 69.4827C20.301 68.4697 18.6968 68.4586 18.8142 69.4827Z" fill="#F3A9B1"/>
<path d="M12.4108 75.955C12.1502 77.0905 11.8906 78.226 11.6292 79.3607C11.3995 80.3651 12.9438 80.7936 13.1752 79.7875C13.4357 78.652 13.6954 77.5164 13.9568 76.3809C14.1864 75.3774 12.6422 74.948 12.4108 75.955Z" fill="#F3A9B1"/>
<path d="M7.28516 79.0961V82.9423C7.28516 83.9733 8.88775 83.975 8.88775 82.9423V79.0961C8.88775 78.0652 7.28516 78.0635 7.28516 79.0961Z" fill="#F3A9B1"/>
<path d="M17.8714 83.4233C17.8689 85.0267 17.5458 86.5402 16.9236 88.0159C16.5234 88.9646 18.0729 89.3794 18.4688 88.4418C19.145 86.8384 19.4706 85.1621 19.474 83.4233C19.4766 82.3923 17.8732 82.3906 17.8714 83.4233Z" fill="#F3A9B1"/>
<path d="M9.67945 89.1931C9.814 90.2043 9.73173 91.213 9.32552 92.1565C8.92359 93.0941 10.3033 93.9116 10.7096 92.9655C11.2272 91.7589 11.456 90.5017 11.282 89.1931C11.2246 88.7611 10.9547 88.3969 10.4807 88.3926C10.0917 88.3883 9.62203 88.7646 9.67945 89.1931Z" fill="#F3A9B1"/>
<path d="M4.44583 95.6517C4.62151 96.9312 4.79719 98.2116 4.97287 99.4919C5.11256 100.508 6.65773 100.076 6.51804 99.066C6.34235 97.7848 6.16668 96.5053 5.99099 95.2258C5.85131 94.2085 4.307 94.6422 4.44583 95.6517Z" fill="#F3A9B1"/>
<path d="M15.4575 95.9226V97.8448C15.4575 98.8767 17.0601 98.8784 17.0601 97.8448V95.9226C17.0601 94.8917 15.4575 94.8891 15.4575 95.9226Z" fill="#F3A9B1"/>
<path d="M37.4151 90.1091C41.8321 89.9668 46.2481 89.8254 50.6642 89.684C50.3968 89.4175 50.1303 89.1501 49.8629 88.8836C50.1577 91.5471 50.4534 94.2124 50.7482 96.8768C50.9385 98.5916 52.3439 104.09 51.2984 105.284C50.3506 106.366 44.9284 105.472 43.4364 105.416C40.4712 105.304 37.506 105.192 34.5416 105.081C34.8082 105.348 35.0755 105.615 35.3429 105.882C35.2607 100.552 36.0465 95.4284 37.7108 90.3688C38.0347 89.3875 36.4879 88.9659 36.1665 89.9428C34.4559 95.1405 33.6564 100.415 33.7404 105.882C33.7464 106.327 34.102 106.667 34.5416 106.683C38.4187 106.829 42.2957 106.976 46.1727 107.121C47.7967 107.182 51.3875 108.14 52.7476 106.777C54.0382 105.484 52.9567 102.349 52.7938 100.873C52.3508 96.8767 51.9077 92.8797 51.4655 88.8836C51.4192 88.4636 51.1356 88.0669 50.6642 88.0814C46.2481 88.2228 41.8321 88.3651 37.4151 88.5065C36.3867 88.5391 36.3825 90.1425 37.4151 90.1091Z" fill="#F3A9B1"/>
<path d="M38.555 91.5988C38.0374 96.4014 37.5189 101.206 37.0013 106.008C36.8908 107.033 38.4942 107.025 38.6039 106.008C39.1215 101.206 39.64 96.4014 40.1576 91.5988C40.2682 90.5739 38.6647 90.5816 38.555 91.5988Z" fill="#F3A9B1"/>
<path d="M41.0797 91.1235C40.7866 95.7624 40.4935 100.401 40.2004 105.04C40.1353 106.069 41.7379 106.066 41.8021 105.04C42.0961 100.401 42.3883 95.7624 42.6823 91.1235C42.7465 90.0934 41.144 90.0977 41.0797 91.1235Z" fill="#F3A9B1"/>
<path d="M42.8606 89.6733V106.019C42.8606 107.05 44.4623 107.051 44.4623 106.019V89.6733C44.4623 88.6423 42.8606 88.6406 42.8606 89.6733Z" fill="#F3A9B1"/>
<path d="M46.7624 88.7163C46.2097 94.3254 46.0863 99.9275 46.3897 105.556C46.4454 106.582 48.0479 106.589 47.9931 105.556C47.6889 99.9275 47.8131 94.3254 48.365 88.7163C48.4661 87.6914 46.8627 87.6982 46.7624 88.7163Z" fill="#F3A9B1"/>
<path d="M67.4417 81.3321C69.9244 80.7647 73.9077 79.4304 76.3887 80.3182C79.5433 81.4469 79.0376 87.4073 79.3367 90.0614C79.6555 92.898 79.9752 95.7363 80.2949 98.5738C80.4277 99.7514 81.0619 101.656 80.7739 102.831C80.2203 105.09 77.7847 104.665 75.9353 104.894C73.2769 105.222 70.2278 106.013 67.5583 105.896C65.69 105.814 64.3266 106.196 63.6367 103.964C63.2819 102.814 63.6632 101.099 63.7224 99.8679C64.0326 93.3616 65.1818 86.989 66.973 80.7356C67.2575 79.7423 65.7106 79.3181 65.4278 80.3096C64.2023 84.5877 63.2493 88.9198 62.6906 93.3385C62.3478 96.0483 62.1309 98.7753 62.059 101.506C62.023 102.848 61.6604 104.788 62.232 106.064C63.0865 107.972 64.893 107.78 66.7201 107.599C70.8842 107.187 76.4341 107.366 80.3549 105.92C82.7502 105.035 82.3663 103.525 82.1846 101.128C81.7972 96.0158 81.0336 90.8995 80.4594 85.8038C80.2195 83.6656 80.7225 80.0543 78.5672 78.9402C75.8368 77.5296 69.8507 79.1398 67.0141 79.7869C66.0097 80.0157 66.4356 81.5617 67.4417 81.3321Z" fill="#F3A9B1"/>
<path d="M66.9156 81.5014C66.4151 89.9856 65.9138 98.4707 65.4133 106.956H67.0159C67.0296 106.483 67.0433 106.01 67.0579 105.537C67.0879 104.506 65.4853 104.506 65.4544 105.537C65.4407 106.01 65.427 106.483 65.4133 106.956C65.3824 107.993 66.9542 107.979 67.0159 106.956C67.5163 98.4707 68.0168 89.9856 68.5182 81.5014C68.579 80.4705 66.9756 80.4739 66.9156 81.5014Z" fill="#F3A9B1"/>
<path d="M69.28 80.0581C69.5439 88.0992 69.2457 96.101 68.3844 104.1C68.2756 105.124 69.879 105.117 69.987 104.1C70.8483 96.101 71.1465 88.0992 70.8817 80.0581C70.8483 79.0297 69.2457 79.0254 69.28 80.0581Z" fill="#F3A9B1"/>
<path d="M71.7053 80.0571V102.172C71.7053 103.203 73.3079 103.204 73.3079 102.172V80.0571C73.3079 79.0261 71.7053 79.0244 71.7053 80.0571Z" fill="#F3A9B1"/>
<path d="M75.0706 80.5385V104.095C75.0706 105.126 76.6731 105.128 76.6731 104.095V80.5385C76.6731 79.5076 75.0706 79.5058 75.0706 80.5385Z" fill="#F3A9B1"/>
<path d="M78.4353 90.6342V102.653C78.4353 103.684 80.0387 103.685 80.0387 102.653V90.6342C80.0387 89.6033 78.4353 89.6015 78.4353 90.6342Z" fill="#F3A9B1"/>
<path d="M97.0242 67.4541C101.158 67.2545 105.804 66.862 109.894 67.6478C111.977 67.5904 113.725 68.4637 115.138 70.2668C115.354 71.8497 115.56 73.4326 115.757 75.0163C116.033 77.223 116.292 79.4324 116.534 81.6443C117.017 86.0663 117.434 90.4952 117.784 94.9293C117.96 97.1463 118.117 99.3651 118.259 101.585C118.33 102.695 118.396 103.805 118.458 104.916C117.264 105.644 115.977 105.979 114.597 105.919C110.452 106.566 105.76 106.886 101.566 106.693C99.0107 107.297 97.6378 106.279 97.4467 103.641C97.3893 102.548 97.343 101.455 97.3096 100.362C97.2411 98.1765 97.2196 95.9877 97.2453 93.8007C97.3516 84.5623 98.332 75.3805 100.052 66.3058C100.242 65.2971 98.6988 64.8652 98.506 65.879C96.1501 78.3148 95.1508 90.9923 95.8441 103.641C96.0695 107.756 97.541 108.134 101.566 108.296C104.789 108.426 108.031 108.034 111.24 107.783C113.234 107.628 117.64 108.253 119.209 106.887C121.43 104.954 119.71 99.1775 119.515 96.5928C119.016 89.9391 118.365 83.2965 117.564 76.6728C117.206 73.7111 117.734 68.1218 114.467 66.6477C112.534 65.777 109.511 65.993 107.485 65.8705C103.995 65.6605 100.516 65.6836 97.0242 65.8516C95.9984 65.9004 95.9924 67.5039 97.0242 67.4541Z" fill="#F3A9B1"/>
<path d="M101.512 71.8856C101.691 73.4856 101.87 75.0856 102.049 76.6865C102.162 77.7003 103.766 77.7115 103.651 76.6865C103.472 75.0856 103.293 73.4856 103.114 71.8856C103.001 70.8718 101.397 70.8607 101.512 71.8856Z" fill="#F3A9B1"/>
<path d="M110.549 74.298C110.702 75.9015 110.854 77.504 111.006 79.1083C111.103 80.1256 112.706 80.1359 112.609 79.1083C112.456 77.504 112.304 75.9015 112.152 74.298C112.055 73.2808 110.452 73.2705 110.549 74.298Z" fill="#F3A9B1"/>
<path d="M104.877 80.5385V84.3847C104.877 85.4156 106.479 85.4173 106.479 84.3847V80.5385C106.479 79.5076 104.877 79.5058 104.877 80.5385Z" fill="#F3A9B1"/>
<path d="M101.082 88.5024C100.821 90.0896 101.126 91.6656 102.086 92.9742C102.689 93.797 104.081 92.9991 103.469 92.1653C102.775 91.2174 102.434 90.1051 102.627 88.9293C102.793 87.9197 101.249 87.4861 101.082 88.5024Z" fill="#F3A9B1"/>
<path d="M113.509 88.7135C113.704 90.3118 113.898 91.9101 114.091 93.5084C114.214 94.5196 115.819 94.5316 115.695 93.5084C115.5 91.9101 115.306 90.3118 115.112 88.7135C114.989 87.7022 113.385 87.6894 113.509 88.7135Z" fill="#F3A9B1"/>
<path d="M108.369 95.7315C108.01 97.3255 107.652 98.9204 107.294 100.514C107.067 101.518 108.612 101.947 108.839 100.939C109.197 99.3463 109.555 97.7515 109.914 96.1583C110.14 95.1531 108.595 94.7246 108.369 95.7315Z" fill="#F3A9B1"/>
<path d="M101.511 99.768V101.691C101.511 102.722 103.114 102.724 103.114 101.691V99.768C103.114 98.737 101.511 98.7353 101.511 99.768Z" fill="#F3A9B1"/>
<path d="M113.115 100.529C112.841 101.565 113.003 102.67 113.609 103.561C114.186 104.409 115.575 103.607 114.993 102.751C114.619 102.202 114.489 101.604 114.66 100.955C114.924 99.9564 113.379 99.5305 113.115 100.529Z" fill="#F3A9B1"/>
<path d="M52.5181 47.5235C46.9588 40.2853 40.3883 32.0651 41.2187 22.3433C41.4355 19.8118 42.2377 16.9923 44.0442 15.1138C47.1542 11.8778 51.3201 13.6295 53.7033 16.5689C56.4637 19.9721 57.157 24.7189 59.3055 28.5154C59.6252 29.0802 60.3502 28.9825 60.6896 28.5154C64.1664 23.73 68.4136 18.0095 74.9251 17.7773C82.8454 17.4962 85.053 25.839 81.5479 31.6666C78.6178 36.5403 72.8211 38.8413 67.8197 40.9212C62.2381 43.2428 56.6291 45.5036 51.0338 47.7943C50.092 48.1799 50.5042 49.7302 51.4598 49.3386C59.4564 46.0649 68.1205 43.3533 75.6441 39.0598C80.9669 36.0235 85.4549 30.9784 84.8096 24.4601C84.2697 19.0105 79.6102 15.7848 74.32 16.2304C67.4384 16.8115 63.06 22.5404 59.3055 27.7064H60.6896C57.9386 22.8447 57.2667 16.0299 52.0999 12.8556C48.4894 10.6377 44.5232 11.6661 42.0705 15.004C34.1528 25.7841 44.7178 39.976 51.135 48.3316C51.7546 49.1389 53.1472 48.3419 52.5181 47.5235Z" fill="#F3A9B1"/>
<path d="M17.2288 25.4287C6.86778 26.3226 -3.31069 36.3554 1.61016 47.2606C6.03909 57.074 17.7284 57.2326 24.4027 49.7519C27.5504 46.2237 30.3477 41.0311 29.1582 36.1626C27.9601 31.2589 22.633 28.8842 18.0798 28.0914C13.1924 27.2404 8.52008 28.9638 5.74685 33.1596C2.3703 38.2665 3.11674 44.4985 5.13324 49.955C5.85055 51.8969 8.34354 51.4487 8.5955 49.4862C9.19625 44.8182 8.97515 40.2847 8.0196 35.6835C7.62024 33.7578 4.41252 34.1598 4.55735 36.1523C4.96356 41.7467 6.03651 47.1218 7.8739 52.4283C8.31954 53.7138 10.4157 54.3385 11.0962 52.8491C12.3457 50.1127 12.1854 47.3421 12.2308 44.37C12.2977 39.9985 12.3645 35.6269 12.4314 31.2554C11.277 31.4114 10.1235 31.5674 8.96829 31.7242C10.0241 38.5716 11.3644 45.3555 12.9927 52.0898C13.4024 53.7832 15.9665 53.7549 16.3924 52.0898C18.0113 45.7669 15.7822 39.1106 18.0584 32.9497C16.9049 32.7937 15.7505 32.6377 14.5961 32.4809C15.142 38.1482 15.688 43.8147 16.2339 49.4811C16.4138 51.3536 19.1648 52.0015 19.6961 49.9499C20.9182 45.2356 21.6492 40.4938 21.9251 35.6321H18.3995C18.822 39.3334 19.2453 43.0356 19.6687 46.737C19.8598 48.4158 21.9569 49.2094 22.9535 47.6266C23.2981 47.0807 26.4089 40.0859 24.8758 40.0619C27.1451 40.0979 27.1459 36.5722 24.8758 36.5362C23.5406 36.5148 22.5679 36.8756 21.932 38.1834C21.6346 38.7961 21.6998 39.4234 21.6132 40.0619C21.3081 42.3166 21.1504 43.8772 19.9086 45.8475C21.0039 46.144 22.0991 46.4396 23.1935 46.737C22.771 43.0356 22.3485 39.3334 21.9251 35.6321C21.6715 33.4142 18.5306 33.3191 18.3995 35.6321C18.1415 40.1801 17.4388 44.6048 16.2964 49.0123C17.4508 49.1692 18.6051 49.3251 19.7595 49.4811C19.2136 43.8147 18.6677 38.1482 18.1218 32.4809C17.9299 30.491 15.3657 30.1002 14.6596 32.0121C12.35 38.2605 14.6159 44.8148 12.9927 51.1522H16.3924C14.765 44.418 13.4238 37.634 12.3688 30.7866C12.0586 28.7744 8.93487 29.3323 8.90573 31.2554C8.85602 34.5343 8.80544 37.8123 8.75488 41.0911C8.70946 44.0777 9.32994 48.2719 8.05216 51.07C9.12597 51.2097 10.1998 51.3502 11.2736 51.4907C9.54247 46.4927 8.46607 41.4313 8.083 36.1523C6.92863 36.3074 5.77428 36.4642 4.62077 36.6202C5.51633 40.9352 5.63029 45.1258 5.06982 49.4862C6.22419 49.3302 7.37857 49.1743 8.53294 49.0175C6.02538 42.2318 6.1899 31.1003 16.1687 31.3934C20.4348 31.5185 25.5725 33.9215 25.7456 38.5596C25.8776 42.1118 23.5449 45.7798 21.039 48.1776C15.4266 53.5492 6.20619 52.4317 4.20854 44.094C2.25803 35.9526 9.86383 29.5894 17.2288 28.9544C19.4724 28.7616 19.493 25.2333 17.2288 25.4287Z" fill="#94C6E4"/>
<path d="M46.4078 66.1233C42.2865 63.5438 37.8267 65.8131 36.3878 70.1983C34.9584 74.5536 36.1641 79.3793 40.24 81.7789C48.3634 86.5635 57.7132 76.7364 52.3896 68.9163C46.964 60.9454 34.1194 65.8071 35.3611 75.3669C36.6946 85.6276 52.6947 82.9118 52.6287 73.2895C52.5961 68.4895 47.2399 65.8328 43.0286 65.5826C37.2499 65.2389 38.3546 75.2229 38.9108 78.7691C39.1833 80.5071 41.9506 80.394 42.3105 78.7691C42.9575 75.8536 43.8488 73.0547 45.0057 70.3012H41.606C42.5007 72.9656 43.2463 75.6565 43.8505 78.4006C44.2961 80.4257 47.2005 79.8378 47.3136 77.9318C47.4901 74.9375 48.1637 72.1805 49.4218 69.4562C48.348 69.3156 47.2733 69.176 46.1995 69.0354C46.85 71.7486 47.5004 74.4619 48.1517 77.1751C48.6805 79.3801 52.0811 78.4469 51.5514 76.2376C50.901 73.5243 50.2497 70.8111 49.5992 68.0979C49.2658 66.707 47.0214 66.2819 46.3769 67.6771C44.854 70.9748 44.0013 74.305 43.7871 77.9318C44.9415 77.7759 46.0958 77.6199 47.2502 77.4639C46.646 74.719 45.9004 72.028 45.0057 69.3636C44.4135 67.6008 42.2651 67.7962 41.606 69.3636C40.4482 72.1171 39.5578 74.9161 38.9108 77.8324H42.3105C42.0088 75.9068 41.9411 73.9922 42.17 72.0554C42.2334 71.5215 42.2411 70.0775 42.6053 69.6207C43.2043 68.8708 42.727 69.2899 43.7082 69.2582C46.3743 69.1751 49.7723 71.6689 48.9033 74.509C47.9024 77.7853 43.6954 79.5584 40.7722 77.7887C37.2748 75.6719 38.9082 70.7657 41.8657 69.0268C47.8629 65.4994 53.7402 74.5253 47.9143 78.6354C45.4042 80.4051 41.7114 79.5224 40.096 76.9077C38.2055 73.85 40.12 66.3461 44.6278 69.1682C46.5569 70.3749 48.3283 67.3266 46.4078 66.1233Z" fill="#94C6E4"/>
<path d="M74.4304 55.4088C67.8461 55.8321 60.6414 62.7789 63.7223 69.8105C66.6994 76.6047 76.8308 76.507 80.8492 70.8937C85.1299 64.9111 81.9419 56.39 74.7072 54.814C65.294 52.7632 65.4799 65.4887 66.3069 71.605C66.576 73.5958 69.7941 73.0816 69.7701 71.1363C69.7272 67.7632 70.1445 64.5375 71.0495 61.2869H67.6499C69.0468 64.6669 70.4436 68.0477 71.8414 71.4285C72.6178 73.3088 75.0414 72.9737 75.3036 70.9606C75.8255 66.9447 76.3466 62.9306 76.8685 58.9147C75.7142 59.0716 74.5598 59.2267 73.4063 59.3835C74.1253 62.8397 74.8434 66.296 75.5624 69.7531C75.8872 71.3137 78.0177 71.3737 78.7847 70.1739C80.3496 67.7229 81.366 65.1194 81.8468 62.251C82.2187 60.0314 78.8216 59.0776 78.4471 61.3135C78.01 63.923 77.1693 66.1555 75.7399 68.3948C76.8137 68.5345 77.8884 68.675 78.9622 68.8155C78.2431 65.3593 77.5241 61.9022 76.806 58.446C76.3638 56.3223 73.5768 57.115 73.3429 58.9147C72.8218 62.9306 72.2999 66.9447 71.778 70.9606C72.9324 70.8038 74.0867 70.6478 75.2402 70.4918C73.8442 67.111 72.4473 63.7293 71.0495 60.3493C70.4256 58.8385 68.1589 58.5231 67.6499 60.3493C66.6635 63.893 66.1973 67.4564 66.2435 71.1363C67.3979 70.9794 68.5523 70.8243 69.7058 70.6675C69.297 67.6475 68.5985 57.2702 73.7696 58.2137C78.6536 59.1041 80.8133 64.726 78.0426 68.729C75.4956 72.4097 68.3946 72.7508 66.9026 67.914C65.5005 63.3668 70.244 59.2035 74.4304 58.9353C76.6834 58.7905 76.6997 55.2631 74.4304 55.4088Z" fill="#94C6E4"/>
<path d="M108.936 40.2857C104.808 36.9469 99.4641 38.3558 96.6788 42.753C93.6048 47.6071 94.5398 54.6524 99.1273 58.238C109.659 66.4711 119.502 47.5034 111.591 39.8067C107.698 36.0197 101.241 34.3108 97.409 38.9728C94.0607 43.0436 94.4301 49.2328 97.2547 53.4697C100.001 57.5893 105.611 60.2477 110.392 58.0495C115.174 55.853 116.766 49.1942 115.39 44.4876C113.781 38.984 107.808 36.761 102.814 39.3696C96.5254 42.6562 96.4972 50.5662 99.6706 56.0656C100.366 57.2696 102.654 57.2002 102.893 55.6448C103.518 51.5698 104.144 47.4948 104.769 43.4198H101.369C102.634 47.5711 103.899 51.7223 105.164 55.8728C105.66 57.4993 108.115 57.6013 108.564 55.8728C109.641 51.7266 110.717 47.5805 111.794 43.4352H108.394C109.299 46.8555 109.499 50.0957 109.089 53.6C108.825 55.8487 112.353 55.8299 112.614 53.6C113.059 49.7941 112.771 46.193 111.794 42.4985C111.351 40.8257 108.832 40.8137 108.394 42.4985C107.318 46.6447 106.241 50.7908 105.164 54.9361H108.564C107.3 50.7848 106.035 46.6335 104.769 42.4823C104.304 40.9594 101.649 40.6569 101.369 42.4823C100.744 46.5573 100.119 50.6322 99.4932 54.7072C100.567 54.5667 101.642 54.4261 102.715 54.2856C100.608 50.6348 99.8986 45.2015 104.15 42.6742C108.617 40.0175 112.506 43.6666 112.32 48.3303C112.147 52.6504 109.14 56.5635 104.348 54.8752C100.904 53.6617 98.6611 49.9852 98.5334 46.4347C98.3405 41.0537 102.666 38.1107 107.503 41.1265C111.657 43.7163 111.58 48.7297 109.608 52.701C107.348 57.2525 102.071 58.0075 99.4358 53.2709C98.2805 51.1936 98.0749 48.5557 98.8522 46.3181C99.8463 43.4566 103.186 40.1452 106.443 42.7788C108.192 44.1928 110.701 41.7135 108.936 40.2857Z" fill="#94C6E4"/>
</svg>
