<svg width="120" height="120" viewBox="0 0 120 120" fill="none" xmlns="http://www.w3.org/2000/svg">
<path d="M53.3024 84.2248C52.3289 79.8505 50.0287 76.1255 48.4036 71.9961C47.4302 69.5216 46.1741 66.1003 47.1083 63.4586C47.1554 60.9684 48.9139 60.7572 52.376 62.8251C52.6115 63.2466 52.847 63.6682 53.0825 64.089C54.1267 65.4275 54.8018 67.7167 55.3749 69.1942C55.5319 69.6048 56.0187 69.9212 56.4504 69.6331C58.6329 68.1626 59.363 66.1215 60.9017 64.0749C62.7074 60.8341 64.9447 60.9841 67.6139 64.5255C67.873 65.6191 67.9672 66.7229 67.9044 67.8376C67.7866 69.8819 67.1272 71.8179 66.1773 73.6156C62.7466 80.1434 56.0893 82.1209 51.1435 86.9922C50.4762 87.6563 51.5124 88.6942 52.1876 88.03C56.0893 84.1746 61.3491 82.3195 64.9447 78.0316C67.5982 74.8717 69.5373 70.8797 69.3803 66.6734C69.2782 63.8715 68.1792 60.0546 64.8034 59.8866C60.1324 59.6558 58.7899 66.2934 55.7124 68.3652C56.0657 68.5112 56.4269 68.658 56.7881 68.8041C55.6497 65.864 50.484 53.8668 46.3547 60.8043C42.0604 67.9986 50.3899 77.8973 51.8815 84.615C52.0856 85.5375 53.5065 85.1473 53.3024 84.2248Z" fill="#F3A9B1"/>
<path d="M48.4036 61.3709C48.7804 63.014 48.3644 64.5566 47.1554 66.0004C46.6687 66.6096 47.281 67.6176 48.0504 67.1536C49.2201 66.4455 50.2799 65.6958 51.3397 64.8455C50.9315 64.6085 50.5233 64.3698 50.1151 64.1319C49.0945 66.5672 48.0818 69.0016 47.0612 71.4369C46.7629 72.1505 47.807 72.6191 48.2937 72.1505C49.8795 70.6102 51.4654 69.0699 53.0512 67.5296C52.6429 67.2918 52.2268 67.0539 51.8186 66.816C50.8451 69.6626 49.6597 72.3891 48.2466 75.0466C47.8777 75.7468 48.8433 76.6041 49.4006 75.936C51.7637 73.1145 54.1267 70.2938 56.4818 67.4723C56.0736 67.2345 55.6653 66.9966 55.2571 66.7587C54.2758 71.6174 52.7057 76.2006 50.484 80.6369C50.1307 81.3317 51.0963 82.2235 51.638 81.5264C56.2463 75.5749 60.8546 69.6234 65.4628 63.6727C65.0782 63.3759 64.6935 63.0792 64.3088 62.7824C61.3335 69.7773 57.9263 76.546 54.0795 83.1004C54.5035 83.3477 54.9274 83.5942 55.3513 83.8423C58.6407 78.0941 62.5502 72.8327 67.1036 68.0164C66.7189 67.7196 66.3342 67.4237 65.9496 67.1269C63.8456 71.1174 61.7495 75.107 59.6455 79.0967C59.3315 79.6933 59.8497 80.2868 60.4777 80.1745C62.8643 79.7475 64.7327 78.96 66.711 77.5273C67.4725 76.9786 66.7425 75.7044 65.9731 76.2595C64.144 77.5791 62.3305 78.3564 60.0852 78.7591C60.3678 79.1186 60.6426 79.4782 60.9173 79.837C63.0134 75.8473 65.1174 71.8576 67.2135 67.868C67.5903 67.1544 66.6561 66.3497 66.0595 66.9785C61.4277 71.8828 57.4396 77.2439 54.0795 83.1004C53.6085 83.9216 54.8724 84.6572 55.3513 83.8423C59.1981 77.2871 62.6052 70.5184 65.5806 63.5243C65.8711 62.8421 64.984 61.9095 64.4266 62.6348C59.8183 68.5856 55.2022 74.5371 50.5939 80.4886C50.9786 80.7853 51.3633 81.0813 51.7479 81.378C54.0246 76.8388 55.6654 72.1309 56.6703 67.1489C56.8037 66.4973 55.9558 65.8253 55.4455 66.4345C53.0825 69.2552 50.7273 72.0767 48.3643 74.8982C48.749 75.1949 49.1337 75.4909 49.5184 75.7876C50.9865 73.0117 52.219 70.1776 53.2396 67.2062C53.4829 66.4879 52.5094 66.0058 52.007 66.4918C50.4212 68.0321 48.8354 69.5724 47.2496 71.1127C47.6578 71.3505 48.0739 71.5884 48.4821 71.827C49.4948 69.3918 50.5154 66.9574 51.5281 64.5221C51.85 63.7614 50.7902 63.4159 50.3035 63.8077C49.3693 64.5974 48.3722 65.2906 47.3045 65.8849C47.6028 66.2704 47.9012 66.6543 48.1995 67.0382C49.6126 65.2687 50.1543 63.6546 49.8717 61.3709C49.7539 60.4461 48.2858 60.4343 48.4036 61.3709Z" fill="#F3A9B1"/>
<path d="M33.4091 97.0042C27.0658 87.2091 22.1749 76.5748 19.074 65.3148C18.0142 61.4805 15.0073 54.0162 16.9543 50.1718C20.0003 44.1379 29.264 59.3813 30.5279 61.899C31.2423 63.3254 33.6053 62.655 33.5346 61.0841C32.9066 47.8614 33.5503 34.5963 35.7014 21.5275C36.039 19.4675 35.9919 14.59 37.5934 13.1714C40.7101 10.4072 42.6099 19.9386 43.0103 21.387C44.7453 27.6549 45.8444 34.0492 46.3861 40.5282C46.5588 42.5694 49.6048 42.6384 49.6126 40.5282C49.644 34.5469 50.17 28.6095 51.3633 22.7428C52.4702 17.3165 53.7812 10.9112 56.5525 6.05485C59.4886 0.912742 61.2079 6.22682 62.04 9.26498C62.8015 12.0778 63.4924 14.9135 64.0969 17.7656C65.3843 23.8089 66.2715 29.915 66.8445 36.0667C66.9859 37.5355 69.0505 38.4227 69.8591 36.8816C71.6883 33.3858 73.6666 29.9755 75.8412 26.6822C76.8697 25.1356 77.9217 23.6024 79.0365 22.1187C79.6802 21.2528 80.4182 19.8931 81.3916 19.3624C82.9853 18.4941 84.2335 19.5241 84.9244 20.9984C85.7879 22.8401 85.5838 26.1986 85.7801 28.2633C85.9763 30.3201 86.1255 32.3809 86.2432 34.444C86.4944 39.0892 86.5259 43.7367 86.4003 48.3858C86.3532 50.1294 88.5277 50.3908 89.407 49.2015C91.7465 46.0456 95.4598 41.0542 99.2123 39.4644C104.833 37.081 103.444 48.0498 102.863 51.1484C101.261 59.8005 96.7865 67.6267 92.3667 75.1161C84.6967 88.1245 75.9826 103.477 81.737 118.906C82.4593 120.836 85.5838 120 84.8538 118.047C76.9639 96.8936 96.8337 78.1418 103.774 59.7291C105.383 55.4529 106.482 50.9278 106.615 46.3447C106.694 43.4031 106.843 38.1997 104.331 36.0542C98.8041 31.3281 89.2029 44.0876 86.6201 47.5709C87.625 47.8425 88.6298 48.1142 89.6268 48.3858C89.8153 41.6689 89.6425 34.9551 89.0066 28.2633C88.6769 24.7651 89.1401 17.3291 85.2619 15.4371C81.9254 13.805 78.9344 16.9679 77.0738 19.3733C73.2506 24.3341 69.9769 29.7102 67.0644 35.2519C68.0693 35.5235 69.0741 35.7951 70.079 36.0667C69.3175 27.9335 68.03 19.8671 66.0673 11.935C65.1724 8.30957 64.089 -1.87499 58.0127 0.301967C52.5016 2.27638 50.8372 11.5974 49.5498 16.3948C47.4301 24.2705 46.4175 32.3793 46.3861 40.5282H49.6126C48.9061 32.1069 47.3281 23.8002 44.6746 15.7691C43.4499 12.0425 39.7523 5.46767 35.4659 10.565C33.4012 13.0223 33.2128 16.9404 32.7104 19.9354C31.9881 24.2297 31.4072 28.5506 30.9754 32.8826C30.0491 42.2585 29.8606 51.676 30.3081 61.0841C31.3051 60.8132 32.31 60.5408 33.3149 60.2692C31.6427 56.9327 29.633 53.8153 27.2071 50.9757C25.2759 48.7171 22.591 45.2801 19.388 44.9371C14.4029 44.4032 13.0683 50.4772 13.398 54.2714C14.0418 61.7529 16.6874 69.5297 19.3487 76.5018C22.3162 84.2668 26.108 91.6588 30.6221 98.634C31.7447 100.373 34.5474 98.7565 33.4091 97.0042Z" fill="#94C6E4"/>
</svg>
