<svg width="120" height="120" viewBox="0 0 120 120" fill="none" xmlns="http://www.w3.org/2000/svg">
<path d="M34.5443 24.6741C32.3464 20.7448 33.4724 16.0496 37.2909 13.5876C36.9132 13.209 36.5346 12.8313 36.1569 12.4537C32.4989 19.1118 34.4263 27.2779 40.6092 31.6594C41.1828 32.0654 42.073 31.3854 41.8265 30.7232C39.689 24.9596 39.0028 19.0763 39.8584 12.9829C40.0055 11.9385 38.6401 11.5227 38.2598 12.5423C36.4875 17.2837 35.4574 22.0942 35.0931 27.1361C35.015 28.2159 36.6286 28.1716 36.7509 27.1361C37.2767 22.69 37.5781 9.3932 44.2309 10.1113C45.192 10.215 45.3062 8.75046 44.4516 8.48272C43.4985 8.18483 42.5464 7.88781 41.5933 7.58993C41.5197 8.13251 41.4462 8.67512 41.3726 9.21858C45.0138 9.27355 48.1292 10.3507 51.0602 12.5059C51.1993 11.9908 51.3394 11.4758 51.4785 10.9616C48.9563 11.1478 46.4331 11.3339 43.9108 11.5201C43.0304 11.5848 42.7237 12.9315 43.69 13.1487C47.6751 14.0415 51.6612 14.9334 55.6463 15.8262C55.6463 15.2934 55.6463 14.7605 55.6463 14.2277C53.7225 14.5459 51.8111 14.78 49.8642 14.835C47.9811 14.8882 45.4978 14.2569 43.6866 14.7782C42.2361 14.3243 41.5473 14.8341 41.6218 16.3058C41.2742 17.4459 40.8247 18.5399 40.2714 19.5879C39.4771 21.1793 38.4984 22.6031 37.4203 24.0127C37.9354 24.1519 38.4504 24.292 38.9646 24.4312C39.1225 20.0604 39.2803 15.6887 39.4381 11.318C38.8955 11.3915 38.3529 11.4652 37.8095 11.5387C39.2696 18.6304 40.0534 25.7673 40.1766 33.0061C40.1953 34.0735 41.8062 34.0735 41.8345 33.0061C42.0189 26.1245 42.6226 19.3059 43.6697 12.5006C43.1368 12.5006 42.604 12.5006 42.0712 12.5006C43.4232 19.032 43.7265 25.5066 43.0305 32.1301C43.5828 32.1301 44.136 32.1301 44.6884 32.1301C44.6104 25.081 45.1334 18.1082 46.2886 11.1504C45.7557 11.1504 45.2229 11.1504 44.6901 11.1504C47.4154 19.4247 47.2204 27.8462 44.1387 35.9902C44.6715 35.9902 45.2043 35.9902 45.7372 35.9902C44.2779 28.0626 44.9711 20.2705 47.7337 12.7037C47.2009 12.7037 46.668 12.7037 46.1352 12.7037C48.4802 19.9407 49.0813 27.2966 47.872 34.8084C48.4146 34.882 48.9572 34.9556 49.5007 35.0292C48.8207 27.9987 49.3588 21.1305 51.1524 14.2915C50.6195 14.2915 50.0866 14.2915 49.5538 14.2915C51.717 20.1695 51.8012 26.097 49.7896 32.0326C50.3322 32.1062 50.8748 32.1798 51.4183 32.2534C51.8873 27.4056 53.0265 22.8602 54.8475 18.3537C54.3422 18.4202 53.8378 18.4859 53.3324 18.5515C56.204 22.9373 56.5612 27.9367 54.226 32.6479C54.7314 32.7135 55.2358 32.78 55.7412 32.8456C54.0638 28.5714 53.82 24.5881 55.0231 20.1508C54.5177 20.2173 54.0133 20.2829 53.508 20.3485C55.3946 24.3833 56.3379 28.3596 56.4904 32.8164C57.033 32.7428 57.5755 32.6692 58.1189 32.5965C57.4256 28.8082 57.5285 25.2832 58.415 21.5392C57.9097 21.6048 57.4052 21.6713 56.8999 21.7369C59.2458 26.8019 60.0012 32.0884 59.2795 37.6091C59.8221 37.5355 60.3646 37.462 60.9081 37.3893C59.1704 33.1922 56.8689 29.4926 53.8528 26.098C53.2765 25.4499 52.2862 26.1431 52.4671 26.9047C54.062 33.6196 55.4806 40.2928 54.7172 47.2258C55.2323 47.0866 55.7465 46.9464 56.2616 46.8073C53.3483 40.9302 50.6576 34.9609 48.1911 28.8817C47.6858 29.0945 47.1814 29.3073 46.676 29.521C48.7018 34.0469 51.6834 37.602 55.7386 40.455C56.5001 40.9905 57.485 39.7369 56.743 39.1526C52.1958 35.5762 47.6486 32.0007 43.1023 28.4243C42.4356 27.9003 41.1997 28.5901 41.7999 29.4288C45.4951 34.5912 50.0539 38.6154 55.6641 41.5898C55.8769 41.0845 56.0896 40.58 56.3024 40.0747C51.6399 38.5577 47.2044 36.6109 42.9312 34.2136C42.1182 33.7579 41.2467 34.8422 41.9267 35.516C47.1043 40.6465 52.6755 45.2611 58.6704 49.404C59.4293 49.9289 60.1004 48.943 59.8043 48.2701C56.5355 40.8354 54.0736 33.1719 52.3642 25.2344C51.8589 25.4472 51.3545 25.66 50.8491 25.8727C55.3378 32.8376 58.1482 40.5375 60.8647 48.3207C61.1537 49.1478 62.5705 49.0893 62.4933 48.0999C61.9836 41.6013 60.7255 35.2996 58.6722 29.1105C58.3282 28.0741 56.9221 28.5156 57.0737 29.5511C58.1589 36.9841 59.4931 44.3683 61.0783 51.7109C61.2769 52.6285 62.7238 52.4192 62.707 51.491C62.5713 44.308 62.4357 37.1251 62.3 29.9421C61.7575 30.0157 61.2149 30.0893 60.6714 30.1628C62.2096 36.8467 62.9818 43.5704 63.0084 50.4263C63.5607 50.4263 64.1139 50.4263 64.6662 50.4263C63.9729 43.8408 63.5589 37.2465 63.4242 30.6265C62.8816 30.7001 62.3391 30.7737 61.7956 30.8464C64.6991 37.8609 66.4199 45.0864 66.9421 52.6666C67.4944 52.6666 68.0476 52.6666 68.6 52.6666C67.404 42.1554 66.2089 31.6452 65.0129 21.1341C64.4703 21.2076 63.9278 21.2812 63.3843 21.3548C64.1096 26.183 64.2611 30.9528 63.8888 35.8174C64.4411 35.8174 64.9943 35.8174 65.5466 35.8174C65.0644 30.4013 65.3481 25.1112 66.4457 19.7812C65.9403 19.8468 65.4358 19.9132 64.9304 19.9788C67.3889 24.7353 68.1585 29.6965 67.2284 34.9689C67.771 35.0425 68.3136 35.1161 68.8571 35.1897C68.1984 27.8152 68.2826 20.4851 69.1098 13.1283C68.5672 13.2019 68.0246 13.2755 67.4811 13.3491C68.9777 19.3769 69.2808 25.3975 68.3553 31.5388C68.201 32.5646 69.6842 33.0406 69.9537 31.9794C71.4476 26.1139 72.9415 20.2484 74.4345 14.3837C73.8919 14.3101 73.3493 14.2365 72.8059 14.1629C73.0727 19.7997 72.2571 25.1866 70.3439 30.4918C70.8865 30.5654 71.429 30.6389 71.9724 30.7125C72.2162 23.7654 73.7013 17.1719 76.4913 10.8064C75.986 10.7408 75.4815 10.6743 74.9762 10.6087C76.7582 15.7623 76.5063 20.8371 74.133 25.7469C74.6383 25.8125 75.1429 25.8789 75.6482 25.9445C74.618 19.2563 74.2315 12.5725 74.4496 5.81149C73.9779 6.00653 73.5062 6.20247 73.0345 6.39752C75.4823 9.01999 76.8894 11.966 77.4603 15.5025C77.7272 15.1532 77.9931 14.803 78.26 14.4537C77.5392 14.3332 76.8193 14.2126 76.0986 14.0911C76.4266 10.1831 76.869 9.3028 77.4231 11.4492C78.0641 12.9244 78.0419 14.7543 78.0605 16.335C78.096 19.3308 77.6448 22.283 76.9515 25.1892C77.494 25.2628 78.0366 25.3364 78.58 25.41C79.0756 19.5285 79.5722 13.6479 80.0678 7.76638C79.5154 7.76638 78.9622 7.76638 78.4099 7.76638C79.042 14.4343 78.7281 20.9656 77.4187 27.5421C77.2121 28.5785 78.7671 29.0298 79.0171 27.9828C80.7672 20.6597 82.5164 13.3366 84.2665 6.01359C83.7239 5.94001 83.1813 5.86644 82.6379 5.79374C83.4331 13.1904 82.5812 20.3725 80.0731 27.3746C80.6157 27.4482 81.1582 27.5218 81.7016 27.5953C81.9853 21.1438 83.2612 14.9813 85.5272 8.94196C84.9944 8.94196 84.4616 8.94196 83.9288 8.94196C85.5432 16.0389 85.2949 23.0118 83.2097 29.9838C83.7523 30.0574 84.2949 30.1309 84.8384 30.2045C85.1788 24.5331 86.4395 19.1845 88.6222 13.9475C88.0894 13.9475 87.5566 13.9475 87.0237 13.9475C88.366 19.3671 88.1621 24.6466 86.4457 29.9501C86.9785 30.0972 87.5114 30.2435 88.0442 30.3907C89.7313 24.6023 91.4184 18.813 93.1056 13.0246C92.563 12.951 92.0204 12.8775 91.4769 12.8039C91.1187 18.3361 89.4849 23.3744 86.569 28.0803C87.0841 28.2195 87.5991 28.3595 88.1133 28.4987C87.8146 20.712 84.982 13.6612 79.8204 7.82223C79.4294 8.2132 79.0384 8.60326 78.6483 8.99424C87.8199 18.18 83.0971 31.5158 78.9125 41.8744C79.4453 42.0216 79.9782 42.1679 80.5111 42.3151C81.9659 38.7103 83.4207 35.1055 84.8756 31.5007C84.333 31.4271 83.7904 31.3535 83.2469 31.2799C83.051 34.7242 82.4712 38.0046 81.4933 41.3088C81.1892 42.3372 82.7647 42.7601 83.0919 41.7494C84.6044 37.0861 86.5397 32.6435 88.921 28.3605C89.4414 27.4243 88.0593 26.6228 87.4892 27.5235C84.5999 32.0973 82.0758 36.8334 79.8895 41.7822C80.4046 41.9214 80.9189 42.0615 81.434 42.2007C80.8976 36.9389 80.8461 31.7161 81.2788 26.4446C81.3604 25.4481 79.9587 25.4126 79.6501 26.2247C77.392 32.1683 75.525 38.2129 74.0382 44.3949C73.7891 45.4322 75.329 45.8586 75.6367 44.8355C77.6385 38.1774 79.6395 31.5184 81.6413 24.8603C81.0988 24.7867 80.5563 24.7131 80.0128 24.6395C79.8186 32.616 76.8911 39.8371 71.4636 45.6902C71.9255 45.8117 72.3874 45.934 72.8493 46.0563C71.6905 38.7847 71.7561 31.6017 73.0434 24.3496C72.5008 24.276 71.9583 24.2025 71.4149 24.1289C71.4255 32.0371 71.437 39.9453 71.4477 47.8535C71.4485 48.7542 72.9336 49.0237 73.0763 48.0733C74.228 40.4063 75.6225 32.788 77.2617 25.2096C76.7289 25.2096 76.1961 25.2096 75.6633 25.2096C76.8584 31.0946 76.7413 36.829 75.3264 42.6617C75.1154 43.5314 76.4434 44.1928 76.8415 43.3C79.112 38.204 80.2459 33.0114 80.2592 27.434C80.2619 26.3373 78.7299 26.4064 78.6013 27.434C77.7999 33.8456 74.9619 39.3964 70.3101 43.8656C70.7818 44.0607 71.2535 44.2566 71.7251 44.4517C71.5062 39.2094 71.5726 33.9875 71.9237 28.7523C71.3714 28.7523 70.8182 28.7523 70.2658 28.7523C69.9502 35.9707 68.2117 42.7344 65.0005 49.2037C65.5059 49.2693 66.0103 49.3358 66.5157 49.4014C65.0998 44.1245 64.6894 38.8592 65.2408 33.4352C64.6982 33.5088 64.1556 33.5823 63.6121 33.6559C65.2222 39.0427 66.8313 44.4295 68.4413 49.8163C68.6869 50.6399 69.764 50.5646 70.0398 49.8163C71.6844 45.3569 72.781 40.8345 73.4105 36.1259C72.8582 36.1259 72.305 36.1259 71.7526 36.1259C72.3005 42.5748 71.8199 48.8482 70.2684 55.141C70.0495 56.0302 71.3236 56.6296 71.7837 55.7794C75.3557 49.1842 78.9276 42.589 82.4996 35.9938C81.9942 35.781 81.4898 35.5683 80.9844 35.3546C78.6244 43.206 75.5852 50.7596 71.8421 58.0561C72.3475 58.2689 72.8519 58.4816 73.3573 58.6944C74.3786 54.6516 75.4 50.6097 76.4213 46.567C76.6491 45.6671 75.384 45.0998 74.9062 45.9278C72.5922 49.9404 70.2782 53.953 67.9634 57.9656C68.4687 58.0312 68.9732 58.0977 69.4785 58.1633C68.8934 54.6818 67.7232 51.6683 65.8233 48.7001C65.3197 47.9128 64.0794 48.4102 64.3081 49.3384C65.0883 52.5008 65.8684 55.6623 66.6477 58.8247C67.1096 58.5561 67.5715 58.2874 68.0334 58.0179C64.1316 53.617 59.814 49.7534 55.0301 46.3365C54.8173 46.8419 54.6046 47.3463 54.3918 47.8517C59.4328 49.2321 63.754 51.6763 67.5264 55.2891C67.8615 54.8546 68.1957 54.4211 68.5308 53.9867C66.9767 52.9867 65.6831 51.7188 64.6521 50.1851C64.4872 50.5911 64.3214 50.9972 64.1565 51.4032C67.1939 50.4431 70.507 51.7747 73.4255 50.4688C75.1251 49.7081 76.2058 48.2311 77.1943 46.7186C80.8984 41.049 82.7123 34.1879 84.3605 27.7079C85.3472 23.8274 87.0317 18.5958 83.1503 15.7136C78.8629 12.5299 73.6924 15.5611 70.0034 18.1144C70.3385 18.5488 70.6728 18.9824 71.0079 19.4168C73.4096 16.3537 75.8113 13.2906 78.2139 10.2275C78.6563 9.66276 78.2759 8.50485 77.4071 8.84175C71.1231 11.2834 66.6273 16.148 64.7673 22.6367C64.5164 23.5127 65.9012 24.1554 66.2825 23.276C68.2019 18.8467 70.7135 14.7676 74.0408 11.247C74.5444 10.7151 75.4371 9.45441 76.1233 9.19997C77.7032 8.61395 80.3922 9.44993 81.3505 10.5112C82.3373 11.6034 82.6432 12.85 83.8161 13.8615C84.3888 14.3554 85.4998 13.8987 85.2019 13.0547C84.9093 12.2276 82.5182 7.44989 82.3879 7.58376C83.8011 6.12713 87.3278 16.4042 87.6487 17.3165C87.9404 18.1454 89.343 18.086 89.2774 17.0957C89.1444 15.0885 89.0106 13.0813 88.8776 11.0741C88.335 11.1477 87.7924 11.2213 87.249 11.294C87.6789 13.6904 88.1089 16.0859 88.5389 18.4823C88.6922 19.337 89.9086 19.2022 90.1373 18.4823C91.148 15.2986 90.7464 12.4164 88.8713 9.6379C88.5247 9.12457 87.7773 9.08202 87.4395 9.6379C85.5352 12.7728 88.256 16.6533 83.2523 17.9982C80.2876 18.7953 77.7582 17.43 74.7971 19.0568C68.4209 22.5579 70.2259 30.466 66.716 35.8218C67.2311 35.961 67.7454 36.1011 68.2605 36.2403C68.7915 31.7995 68.5619 27.5067 67.6053 23.1492C67.4581 22.4781 66.3987 22.3123 66.0901 22.9515C65.3516 24.4808 64.6937 26.8506 63.59 28.129C63.3337 29.6539 62.3923 30.0822 60.7663 29.4164C60.2308 28.8091 59.6953 28.2018 59.1598 27.5945C56.4824 24.558 53.8058 21.5215 51.1283 18.485C50.412 17.672 49.3012 18.8423 49.9564 19.657C53.1197 23.5934 56.7262 26.9339 60.8655 29.8171C61.7468 30.4306 62.5589 29.0014 61.7024 28.3853C53.9308 22.799 45.2797 18.993 35.9122 17.0319C35.9122 17.5647 35.9122 18.0975 35.9122 18.6304C40.2493 17.7952 44.5039 17.4193 48.9119 17.4601C49.5059 17.4654 49.9909 16.7384 49.6274 16.2127C48.5777 14.6931 47.4615 14.0947 45.6086 13.8331C44.8949 13.725 44.1759 13.6966 43.4516 13.7498C41.3699 10.6388 41.8381 9.59713 44.8542 10.6255C47.0298 11.0334 48.8801 12.0263 50.6408 13.3092C50.78 12.7941 50.92 12.279 51.0592 11.7648C49.1664 11.9651 47.4704 11.8047 45.653 11.2373C44.691 10.9367 44.3089 12.2276 45.0146 12.7524C52.6125 18.4016 58.6483 25.5731 62.9791 33.9902C63.4313 34.8688 64.6654 34.2286 64.4943 33.3509C64.1432 31.5556 63.7921 29.7604 63.4419 27.9642C62.9366 28.1769 62.4321 28.3897 61.9268 28.6025C62.0873 29.4961 62.2468 30.3889 62.4073 31.2826C62.7566 31.0157 63.1068 30.7498 63.457 30.4829C56.1064 29.1876 48.841 27.5537 41.6438 25.5793C40.8991 25.3745 40.4116 26.1662 40.7077 26.7965C44.41 34.6799 50.3004 40.9869 57.8938 45.246C58.6846 45.6893 59.6421 44.5713 58.8983 43.9437C54.7491 40.4461 50.2843 37.5187 45.4029 35.1383C44.777 34.8333 43.9774 35.3386 44.1848 36.0745C45.2106 39.6979 48.5378 41.3504 51.5052 43.3204C53.9184 44.9224 56.3316 46.5253 58.7458 48.1274C60.6164 49.3694 62.6821 51.3341 64.8923 51.9033C68.0769 52.7234 69.045 49.8411 70.2756 47.3756C72.9858 41.9462 75.58 36.4628 78.0872 30.9377C77.5818 30.7249 77.0774 30.5122 76.572 30.2985C75.7555 36.2607 74.5692 42.1245 73.0017 47.9341C72.7579 48.8384 74.0391 49.3907 74.517 48.5733C78.8346 41.19 81.9517 33.335 83.8613 24.9968C84.0253 24.2814 83.293 23.7175 82.6432 24.0606C72.1506 29.6025 60.417 33.9857 49.9111 25.8195C48.2781 24.55 46.2798 20.9966 43.8116 22.2449C41.3194 23.5056 42.6687 26.4818 43.7521 28.1078C43.9906 27.692 44.2291 27.2762 44.4676 26.8604C43.4596 26.1502 42.4524 25.4401 41.4444 24.73C40.9825 24.9986 40.5206 25.2681 40.0587 25.5368C44.527 29.7196 48.9944 33.9024 53.4627 38.0861C56.3813 40.8185 60.4976 46.559 64.6574 47.4022C68.2755 48.1354 70.2295 44.5359 71.7579 41.9179C74.5754 37.0923 76.6385 31.9333 78.1217 26.5536C78.3628 25.6777 77.0011 25.0358 76.6066 25.9153C72.4743 35.109 69.6807 44.7034 68.2825 54.6889C68.154 55.6082 69.2295 56.1322 69.7978 55.3281C71.0416 53.5656 72.2854 51.8031 73.5284 50.0406C73.0133 49.9014 72.4982 49.7613 71.984 49.6222C72.031 50.9422 72.078 52.2615 72.125 53.5816C72.1631 54.6455 73.821 54.6508 73.7829 53.5816C73.7359 52.2615 73.6889 50.9422 73.6419 49.6222C73.6109 48.764 72.5639 48.5423 72.0975 49.2037C70.8537 50.9661 69.6098 52.7287 68.3668 54.4912C68.8722 54.704 69.3766 54.9167 69.882 55.1295C71.2597 45.293 73.9654 35.8147 78.0392 26.7522C77.5339 26.5394 77.0294 26.3267 76.5241 26.113C75.2891 30.5937 73.6729 34.922 71.4777 39.0294C70.8279 40.2458 70.0309 42.0579 69.1062 43.0917C64.708 48.0059 62.4331 44.2149 59.51 41.4781C53.4175 35.7739 47.325 30.0697 41.2325 24.3656C40.6571 23.8265 39.579 24.3505 39.8468 25.1724C40.5826 27.4287 42.0632 28.5493 44.4685 28.5201C45.066 28.513 45.543 27.8099 45.1839 27.2726C44.7407 26.6077 44.5819 24.3532 45.7947 24.2858C45.9907 24.2752 47.9084 26.3568 48.2683 26.6547C49.3801 27.5776 50.5663 28.3959 51.827 29.1025C54.7536 30.7427 57.9949 31.7667 61.3354 32.0867C69.3154 32.8518 76.6376 29.1078 83.4802 25.4942C83.0741 25.1821 82.6681 24.8701 82.262 24.558C80.3825 32.7649 77.3362 40.4683 73.0851 47.7382C73.5904 47.951 74.095 48.1638 74.6003 48.3774C76.1669 42.5677 77.354 36.7039 78.1705 30.7418C78.284 29.9137 77.0845 29.1584 76.6554 30.1026C75.2227 33.2596 73.7669 36.4061 72.2704 39.533C71.5221 41.0969 70.7649 42.6564 69.9998 44.2114C68.818 46.6131 68.5592 48.6957 65.8019 49.2232C62.5332 49.8482 58.7112 46.1193 55.9628 44.2939C52.7463 42.1581 46.8941 39.556 45.7841 35.6347C45.3781 35.9468 44.972 36.2589 44.566 36.571C49.3215 38.8894 53.6772 41.7042 57.7262 45.1175C58.0613 44.6831 58.3956 44.2495 58.7307 43.8151C51.3704 39.6872 45.7239 33.593 42.1395 25.9605C41.8274 26.3666 41.5153 26.7726 41.2033 27.1787C48.4004 29.1539 55.6658 30.787 63.0164 32.0823C63.5856 32.1825 64.0066 31.8526 64.066 31.2826C64.2105 29.8818 64.0058 29.0023 63.3594 27.7656C62.902 26.8905 61.6723 27.5253 61.8443 28.4039C62.1954 30.1992 62.5465 31.9945 62.8975 33.7907C63.4029 33.5779 63.9073 33.3651 64.4127 33.1524C59.9435 24.4666 53.6906 17.1472 45.8533 11.3197C45.6405 11.8251 45.4278 12.3295 45.215 12.8349C47.2621 13.4741 48.9359 13.6461 51.0619 13.4218C51.8988 13.3331 52.1657 12.3765 51.4804 11.8774C48.8863 9.98632 40.7556 6.22284 38.3344 10.2612C37.5985 11.4882 38.0329 13.0521 39.0135 14.0442C41.4843 16.5461 46.0696 13.9653 48.1992 17.0479C48.4376 16.6321 48.6761 16.2162 48.9146 15.8004C44.3763 15.7579 39.9266 16.1719 35.4742 17.0292C34.6763 17.1826 34.6905 18.4637 35.4742 18.6277C44.7034 20.5604 53.2127 24.3106 60.8682 29.8135C61.1475 29.3366 61.4259 28.8596 61.7051 28.3817C57.6783 25.5758 54.2012 22.3007 51.1319 18.4805C50.7409 18.8715 50.3508 19.2616 49.9598 19.6526C52.1018 22.0818 54.2429 24.511 56.3849 26.9402C57.6775 28.4065 59.5596 31.6203 61.7122 31.8579C65.0652 32.2285 66.4074 26.0997 67.5254 23.784C67.0201 23.7184 66.5156 23.6519 66.0103 23.5863C66.9492 27.8631 67.1238 31.9094 66.606 36.2367C66.5005 37.1162 67.7453 37.274 68.1505 36.6552C69.9307 33.9387 70.3482 30.9528 71.0398 27.8276C72.3111 22.0782 75.6784 19.4362 81.4987 19.6029C83.3924 19.657 85.7462 19.8849 87.2525 18.438C89.5824 16.2003 87.3483 12.982 88.874 10.4713C88.3971 10.4713 87.9201 10.4713 87.4422 10.4713C89.0469 12.849 89.4264 15.2526 88.5416 18.0382C89.0744 18.0382 89.6072 18.0382 90.14 18.0382C89.71 15.6418 89.2801 13.2462 88.8501 10.8498C88.6861 9.9349 87.1603 10.1388 87.2215 11.0706C87.3544 13.0778 87.4883 15.085 87.6212 17.0922C88.1638 17.0186 88.7064 16.945 89.2499 16.8714C88.6116 15.0566 84.5608 -0.164863 80.1714 6.63777C79.9578 6.96846 80.0713 7.36476 80.3009 7.64225C81.8967 9.57408 82.7709 11.13 83.6052 13.4909C84.0671 13.2223 84.529 12.9528 84.9909 12.6842C82.2478 10.3197 81.4907 4.44528 76.6943 6.75834C71.2712 9.37282 67.115 17.2136 64.8525 22.4346C65.3578 22.6474 65.8623 22.8602 66.3676 23.0729C68.0601 17.1693 72.1125 12.6647 77.8495 10.4358C77.5809 9.97393 77.3123 9.51204 77.0428 9.05013C74.6411 12.1132 72.2393 15.1763 69.8367 18.2394C69.311 18.9096 69.9936 20.1287 70.8412 19.5418C72.7996 18.1853 74.891 16.6143 77.2954 16.1639C82.2371 15.2375 84.458 19.227 83.6193 23.7618C82.9518 27.3684 81.8568 30.9989 80.7575 34.4937C79.5207 38.4274 78.034 42.409 75.7644 45.8773C72.5869 50.7321 68.186 48.3871 63.7177 49.7994C63.2567 49.9448 62.8878 50.5654 63.222 51.0176C64.5191 52.7686 65.9172 54.1472 67.6956 55.4141C68.4687 55.9646 69.3704 54.7545 68.7002 54.1117C64.7221 50.3021 60.1466 47.7036 54.8334 46.2478C53.8821 45.9872 53.4573 47.2364 54.195 47.763C58.8716 51.1027 63.0527 54.8884 66.8632 59.1856C67.4359 59.831 68.4368 59.1421 68.2489 58.3787C67.4687 55.2164 66.6885 52.0549 65.9092 48.8925C65.4039 49.1053 64.8994 49.318 64.3941 49.5317C66.2053 52.3598 67.3269 55.2909 67.8828 58.5987C68.0042 59.3239 69.0654 59.3726 69.3979 58.7963C71.7118 54.7837 74.0257 50.7711 76.3405 46.7585C75.8352 46.5457 75.3308 46.3329 74.8254 46.1193C73.8041 50.162 72.7828 54.2039 71.7606 58.2467C71.5372 59.1297 72.8334 59.7468 73.2758 58.885C77.0836 51.4636 80.1839 43.777 82.5856 35.7881C82.8542 34.8954 81.5208 34.3182 81.0705 35.1498C77.4985 41.745 73.9265 48.3402 70.3545 54.9353C70.8598 55.1481 71.3643 55.3609 71.8696 55.5736C73.4539 49.1513 73.9734 42.714 73.4131 36.118C73.3209 35.0319 71.8944 35.0745 71.7552 36.118C71.1453 40.6811 70.0353 45.051 68.4439 49.3677C68.9767 49.3677 69.5095 49.3677 70.0424 49.3677C68.4324 43.9809 66.8233 38.5941 65.2133 33.2073C64.9323 32.2676 63.6769 32.5247 63.5847 33.4281C63.0155 39.0303 63.4614 44.4029 64.9189 49.8358C65.0945 50.4918 66.1105 50.686 66.4341 50.0335C69.7676 43.3186 71.5983 36.2341 71.9255 28.7452C71.9724 27.6734 70.3385 27.6884 70.2676 28.7452C69.9165 33.9804 69.85 39.2023 70.069 44.4446C70.0991 45.1609 70.9547 45.5395 71.484 45.0306C76.4656 40.244 79.4054 34.2721 80.261 27.426C79.7086 27.426 79.1554 27.426 78.6031 27.426C78.5898 32.7206 77.5631 37.6242 75.4114 42.4551C75.9168 42.6679 76.4212 42.8807 76.9266 43.0943C78.4098 36.9788 78.5162 30.928 77.2635 24.761C77.1021 23.9649 75.8344 23.9755 75.665 24.761C74.0258 32.3394 72.6312 39.9577 71.4796 47.6247C72.0222 47.6983 72.5647 47.7719 73.1081 47.8454C73.0975 39.9373 73.086 32.0291 73.0753 24.1209C73.0744 23.2166 71.6152 22.955 71.4468 23.901C70.1072 31.4528 70.0451 38.9133 71.2526 46.4899C71.351 47.1096 72.2438 47.2807 72.6383 46.8561C78.354 40.6918 81.4694 33.038 81.6733 24.6333C81.6963 23.6829 80.3107 23.5296 80.0447 24.4126C78.0429 31.0707 76.0409 37.7297 74.0399 44.3879C74.5728 44.535 75.1056 44.6813 75.6384 44.8284C77.1252 38.6473 78.9924 32.6018 81.2504 26.6582C80.7079 26.5846 80.1652 26.5111 79.6218 26.4375C79.1891 31.709 79.2406 36.9318 79.777 42.1936C79.8497 42.9081 80.9516 43.4498 81.3213 42.612C83.5076 37.6632 86.0308 32.9271 88.921 28.3533C88.444 28.0741 87.9671 27.7957 87.4892 27.5164C85.0352 31.9316 83.051 36.4974 81.4933 41.3017C82.0261 41.4489 82.559 41.5952 83.0919 41.7423C84.1114 38.2962 84.7009 34.8563 84.9048 31.2728C84.9625 30.2648 83.5998 30.2515 83.2762 31.0521C81.8213 34.6568 80.3665 38.2616 78.9116 41.8664C78.5127 42.8558 80.1156 43.2849 80.5101 42.307C84.9456 31.3269 89.453 17.461 79.8195 7.81422C79.0588 7.05266 77.9453 8.1928 78.6474 8.98628C83.5129 14.4901 86.1735 21.15 86.4555 28.4908C86.4874 29.3117 87.5601 29.6194 87.9998 28.9092C91.0771 23.9409 92.7571 18.625 93.1339 12.7959C93.196 11.8428 91.7616 11.6992 91.5054 12.5751C89.8182 18.3635 88.131 24.1519 86.4439 29.9412C86.1433 30.9705 87.7153 31.3925 88.0424 30.3818C89.8528 24.7894 90.0328 19.2013 88.6205 13.4972C88.4041 12.623 87.3101 12.8047 87.022 13.4972C84.7808 18.8751 83.528 24.386 83.1787 30.1948C83.121 31.1505 84.5458 31.2888 84.8073 30.4155C86.9705 23.1829 87.2011 15.8519 85.5264 8.49159C85.3304 7.62896 84.193 7.78411 83.9279 8.49159C81.6077 14.6745 80.3328 20.994 80.0429 27.5856C79.9994 28.5679 81.371 28.6451 81.6715 27.8064C84.2373 20.6438 85.1087 13.3491 84.2957 5.78486C84.2027 4.91957 82.9021 4.5836 82.6672 5.56414C80.9171 12.8872 79.1679 20.2102 77.4178 27.5333C77.9506 27.6804 78.4834 27.8267 79.0163 27.9739C80.3514 21.2661 80.7122 14.5708 80.0659 7.75751C79.9649 6.69717 78.4985 6.68654 78.4081 7.75751C77.9125 13.639 77.416 19.5196 76.9204 25.4011C76.8415 26.3364 78.3336 26.5217 78.5491 25.621C79.3168 22.4072 82.1982 5.80084 74.5285 7.27786C72.4096 7.68568 71.3359 10.0954 71.8413 12.0795C72.5807 14.9795 75.6331 15.851 78.2583 16.1027C78.8478 16.1595 79.1342 15.5309 79.0579 15.0531C78.4382 11.2116 76.8557 8.05537 74.2057 5.21658C73.6977 4.67223 72.813 5.11109 72.7908 5.80261C72.5674 12.7108 72.9965 19.5471 74.0479 26.3763C74.1552 27.0714 75.267 27.1875 75.5631 26.574C78.1359 21.2511 78.5092 15.757 76.5729 10.1583C76.3663 9.5608 75.3681 9.25225 75.0578 9.96062C72.1436 16.6117 70.5673 23.4488 70.3128 30.7036C70.2782 31.6851 71.6383 31.7649 71.9415 30.9244C73.9114 25.464 74.7377 19.9505 74.4629 14.155C74.4203 13.2498 73.0736 12.9953 72.8342 13.9342C71.3403 19.7997 69.8465 25.6653 68.3535 31.5299C68.8864 31.6771 69.4192 31.8234 69.952 31.9705C70.9237 25.5172 70.6498 19.2341 69.0779 12.8987C68.8367 11.9271 67.5476 12.2462 67.4492 13.1195C66.6221 20.4762 66.5378 27.8073 67.1965 35.1808C67.2728 36.0382 68.6505 36.391 68.8252 35.4007C69.8368 29.6628 69.0379 24.3151 66.3596 19.1331C66.0413 18.5178 64.9872 18.6393 64.8445 19.3308C63.7168 24.808 63.3896 30.2311 63.8869 35.8076C63.9818 36.868 65.4632 36.8795 65.5448 35.8076C65.9278 30.7941 65.7275 25.8736 64.981 20.9044C64.8435 19.9904 63.2469 20.1952 63.3524 21.1252C64.5484 31.6363 65.7434 42.1466 66.9394 52.6577C67.0573 53.6941 68.6718 53.7384 68.5974 52.6577C68.0654 44.9375 66.3543 37.5533 63.3922 30.3969C63.0607 29.5964 61.7433 29.6016 61.7637 30.6176C61.8984 37.2376 62.3116 43.832 63.0058 50.4174C63.1148 51.4547 64.6681 51.5079 64.6637 50.4174C64.6362 43.4091 63.8383 36.5408 62.2673 29.7134C62.0571 28.8011 60.6218 29.0014 60.6386 29.9341C60.7742 37.1171 60.9099 44.3001 61.0455 51.4831C61.5881 51.4095 62.1307 51.3359 62.6742 51.2623C61.089 43.9188 59.7547 36.5355 58.6696 29.1025C58.1367 29.2497 57.6038 29.396 57.071 29.5431C59.0791 35.5949 60.3336 41.7308 60.8327 48.0919C61.3753 48.0183 61.9179 47.9447 62.4614 47.8711C59.6997 39.9576 56.8424 32.1089 52.2792 25.027C51.765 24.2291 50.5645 24.7406 50.7639 25.6653C52.5034 33.7428 55.0461 41.5348 58.3716 49.0973C58.7502 48.7196 59.1279 48.341 59.5056 47.9634C53.6259 43.9002 48.1725 39.3637 43.0978 34.3342C42.7627 34.7686 42.4285 35.2021 42.0934 35.6365C46.4996 38.1083 51.0583 40.1022 55.8608 41.6643C56.7501 41.9533 57.3309 40.5898 56.4993 40.1492C51.1577 37.3175 46.7496 33.4999 43.23 28.583C42.7955 28.9181 42.362 29.2523 41.9276 29.5875C46.4748 33.1639 51.022 36.7403 55.5683 40.3158C55.9034 39.8814 56.2376 39.4479 56.5727 39.0135C52.7552 36.3281 50.0105 32.9325 48.1052 28.6743C47.7267 27.8268 46.2363 28.4402 46.5901 29.3126C49.1097 35.523 51.851 41.6279 54.8281 47.6335C55.2315 48.4474 56.2917 47.9483 56.3724 47.2151C57.1535 40.1181 55.696 33.3288 54.0629 26.4535C53.601 26.7221 53.1391 26.9907 52.6772 27.2602C55.5213 30.4607 57.6694 33.8669 59.306 37.8192C59.6722 38.7031 60.8106 38.5462 60.9347 37.5985C61.7016 31.7383 60.8097 26.246 58.3291 20.8902C58.0268 20.2377 56.97 20.4284 56.814 21.088C55.8627 25.1032 55.7749 28.9686 56.5179 33.0274C56.6863 33.9494 58.1775 33.733 58.1464 32.8066C57.986 28.1104 56.9291 23.761 54.9379 19.5019C54.6267 18.837 53.5983 19.0532 53.4228 19.6996C52.163 24.3452 52.3811 28.7922 54.141 33.2756C54.3759 33.8749 55.3086 34.1755 55.6561 33.4733C58.2458 28.2479 57.9655 22.596 54.7624 17.7039C54.3439 17.0656 53.5123 17.2456 53.2472 17.9016C51.3722 22.5437 50.2409 27.2655 49.7587 32.2427C49.6638 33.2171 51.1026 33.3022 51.3872 32.4635C53.4946 26.2433 53.4201 20.0072 51.1514 13.8411C50.8828 13.1124 49.7737 12.9971 49.5529 13.8411C47.7213 20.8273 47.1468 27.8241 47.8428 35.0195C47.9252 35.8688 49.311 36.2376 49.4714 35.2402C50.7295 27.4242 50.1744 19.7847 47.7345 12.2541C47.473 11.4465 46.4145 11.4899 46.1361 12.2541C43.2716 20.1029 42.628 28.2124 44.1396 36.422C44.3027 37.305 45.4792 37.1064 45.738 36.422C48.9093 28.0413 49.091 19.2084 46.2894 10.7C46.0563 9.99341 44.8346 9.83383 44.691 10.7C43.5118 17.8005 42.9516 24.9206 43.0314 32.1204C43.0438 33.2091 44.5802 33.1603 44.6892 32.1204C45.4003 25.3541 45.0491 18.7057 43.6714 12.0494C43.5118 11.2798 42.1979 11.2373 42.0729 12.0494C41.0037 18.9974 40.3663 25.9676 40.1784 32.9954C40.7307 32.9954 41.2839 32.9954 41.8363 32.9954C41.7104 25.6041 40.901 18.3272 39.4098 11.0874C39.2156 10.1424 37.8139 10.4039 37.7811 11.3082C37.6233 15.679 37.4654 20.0506 37.3076 24.4214C37.2748 25.3284 38.3973 25.4339 38.8521 24.8399C41.4116 21.4958 43.0606 17.9167 43.9578 13.8145C44.0597 13.3508 43.8195 12.9537 43.3789 12.795C41.6013 12.154 40.7502 14.1071 41.861 15.3651C42.909 16.5523 45.504 16.3847 46.8445 16.4512C49.9564 16.6045 53.0203 16.3235 56.0878 15.8164C56.9025 15.6816 56.8538 14.389 56.0878 14.2179C52.1027 13.3251 48.1167 12.4332 44.1316 11.5405C44.058 12.083 43.9844 12.6257 43.9108 13.1691C46.4331 12.9829 48.9563 12.7968 51.4785 12.6106C52.3332 12.5476 52.562 11.5547 51.897 11.0662C48.7134 8.72564 45.3161 7.6121 41.3726 7.5527C40.4187 7.53851 40.2724 8.90646 41.1518 9.1813C42.1049 9.47919 43.0571 9.77621 44.0101 10.0741C44.0837 9.53151 44.1573 8.98895 44.2309 8.44549C41.1607 8.11391 39.0347 8.55894 37.9123 11.5981C36.1356 16.4068 35.6924 22.0543 35.0931 27.129C35.6454 27.129 36.1986 27.129 36.7509 27.129C37.1064 22.2103 38.1349 17.586 39.8584 12.9758C39.3255 12.8287 38.7926 12.6824 38.2598 12.5352C37.359 18.9522 37.9708 25.0731 40.228 31.1567C40.6341 30.8446 41.0402 30.5325 41.4462 30.2205C36.0178 26.3745 34.3953 19.0958 37.5887 13.2826C37.9708 12.5866 37.1783 11.6823 36.4548 12.1487C31.8961 15.0868 30.4589 20.7573 33.1133 25.503C33.6337 26.4419 35.0664 25.6068 34.5443 24.6741Z" fill="#F3A9B1"/>
<path d="M47.8676 113.031C47.5857 105.529 50.2977 97.9813 48.7914 90.5199C47.6309 84.7679 43.8187 80.1958 39.5862 76.3446C34.6161 71.8222 29.3471 67.7493 24.7255 62.8386C19.5364 57.325 14.9599 51.2538 11.0759 44.7561C9.34351 41.8571 7.74511 38.8738 6.29823 35.8222C5.57922 34.3053 4.04725 31.9985 3.96568 30.4363C3.80876 27.4415 5.79015 28.9318 7.55709 29.9416C12.7249 32.8966 16.843 37.3427 20.4957 41.9741C27.6786 51.0818 33.4742 61.5433 43.065 68.4435C49.8757 73.3436 57.7368 76.0786 60.026 85.0578C61.9631 92.6565 60.7742 100.713 62.4224 108.391C62.9144 110.685 66.4315 109.714 65.9394 107.421C64.2904 99.7394 65.4651 91.7212 63.543 84.0879C61.925 77.6638 57.7609 73.3453 52.2703 69.9036C45.8276 65.8653 40.2919 61.9264 35.4344 55.989C31.3199 50.9595 27.7939 45.4805 23.815 40.3464C19.8786 35.2654 15.4662 30.4248 9.90651 27.0878C6.62 25.1152 0.306738 22.6283 0.00707839 28.758C-0.119701 31.3513 1.48503 34.0579 2.53562 36.3524C4.34421 40.3011 6.40017 44.1373 8.67688 47.8361C12.6753 54.3337 17.3794 60.4236 22.6456 65.9434C28.4234 71.9986 35.7465 76.6496 41.0872 83.086C48.5804 92.1184 43.8275 102.585 44.2202 113.033C44.308 115.37 47.9553 115.382 47.8676 113.031Z" fill="#94C6E4"/>
<path d="M79.4258 110.165C78.979 102.594 78.5197 95.0229 78.0852 87.4507C77.8787 83.8583 77.5666 80.1143 79.5986 76.9377C81.4356 74.0653 84.6211 72.1476 87.2533 70.1138C96.3796 63.0612 103.143 53.2026 106.369 42.1187C108.126 36.0812 108.68 29.2679 112.245 23.921C114.208 20.9767 115.93 23.6355 116.095 26.1356C116.191 27.5878 116.225 29.0409 116.198 30.4967C116.131 34.214 115.66 37.9039 114.835 41.5282C113.292 48.3122 110.59 54.778 107.048 60.7579C103.56 66.6465 98.9897 71.4579 94.8441 76.8358C85.9554 88.3683 88.5743 102.643 91.8067 115.77C92.3679 118.049 95.8858 117.083 95.3238 114.8C93.4274 107.099 91.4901 99.039 92.6125 91.0696C93.8449 82.3228 99.8709 76.9794 104.971 70.3133C113.395 59.3039 119.166 45.9025 119.799 31.9471C119.965 28.3033 121.032 18.6973 115.824 17.8223C110.567 16.9392 107.584 24.3678 106.267 28.157C103.773 35.3338 102.977 42.804 99.5128 49.6749C96.2715 56.107 91.703 61.8351 86.122 66.3911C81.0855 70.503 75.2536 73.8445 74.414 80.9202C73.8661 85.5321 74.6126 90.4039 74.8856 95.0211C75.1835 100.069 75.4814 105.116 75.7793 110.165C75.9159 112.499 79.5641 112.514 79.4258 110.165Z" fill="#94C6E4"/>
<path d="M70.4893 59.3598C64.0936 54.1592 57.8486 48.7803 51.7943 43.1861C46.3224 38.1309 39.6616 32.8788 35.985 26.3094C31.8207 18.8702 34.6586 7.54961 45.1787 10.4354C52.5354 12.4532 58.0055 18.9473 60.0543 26.0771C60.5721 27.8777 62.9942 27.7385 63.5714 26.0771C66.0414 18.9633 69.0663 10.0391 76.908 7.28273C80.1697 6.1364 84.2905 6.0903 87.069 8.44148C90.2917 11.1686 90.6676 16.0553 90.4486 19.9687C89.5461 36.0483 76.1997 48.1172 69.8537 62.1223C68.8926 64.2439 72.0346 66.1003 73.0027 63.9628C77.4631 54.1201 84.6292 45.8883 89.3909 36.223C93.2183 28.4549 96.4152 18.043 92.4345 9.69601C89.1782 2.86855 81.1272 1.49788 74.6074 4.28347C66.224 7.86521 62.8266 17.1219 60.0543 25.1063C61.2264 25.1063 62.3993 25.1063 63.5714 25.1063C61.269 17.0953 55.4504 10.2359 47.5015 7.3705C39.8823 4.62391 32.4325 7.72248 30.6203 15.9286C28.6654 24.78 35.0328 32.0481 40.8619 37.8064C49.4608 46.3015 58.5348 54.3134 67.9111 61.9379C69.7162 63.4069 72.312 60.8421 70.4893 59.3598Z" fill="#94C6E4"/>
</svg>
