<svg width="120" height="120" viewBox="0 0 120 120" fill="none" xmlns="http://www.w3.org/2000/svg">
<path d="M16.6577 27.4524C15.2952 43.1632 14.9475 58.9185 15.616 74.6745C15.646 75.3799 16.184 75.9556 16.9079 75.9663C42.7306 76.3355 68.5534 76.7047 94.377 77.0739C100.703 77.1645 107.039 77.3717 113.365 77.3456C117.483 77.3287 118.168 75.5203 118.566 71.7139C119.914 58.7872 120.258 45.7607 119.821 32.7764C119.798 32.0855 119.249 31.4746 118.53 31.4845C102.13 31.7071 85.7287 31.9927 69.3271 32.1393C53.1827 32.2836 36.9915 31.9458 21.1119 28.7543C19.4885 28.428 18.7938 30.9181 20.4249 31.2458C36.052 34.3867 51.9745 34.8496 67.868 34.7352C84.7554 34.6132 101.643 34.2977 118.53 34.0689C118.099 33.6383 117.668 33.2077 117.238 32.7771C117.625 44.2716 117.374 55.7745 116.399 67.2359C116.271 68.7288 116.143 70.2256 115.982 71.7155C115.706 74.26 115.115 74.4281 112.605 74.752C109.956 75.0943 106.918 74.6706 104.251 74.6322C98.4282 74.5486 92.6055 74.4657 86.7826 74.382C63.4913 74.0489 40.2 73.7158 16.9087 73.3826C17.3393 73.8133 17.7699 74.2439 18.2005 74.6745C17.532 58.9192 17.8796 43.1632 19.2421 27.4524C19.3848 25.796 16.8004 25.806 16.6577 27.4524Z" fill="#94C6E4"/>
<path d="M15.3635 42.2931C12.4866 43.2794 9.60665 44.2558 6.73361 45.2513C5.11403 45.8124 3.26807 46.2576 1.97777 47.4619C-0.711044 49.9711 0.0626211 54.2396 0.236861 57.4949C0.861667 69.1613 1.48724 80.8277 2.11204 92.4948C2.15733 93.3346 2.90111 93.9601 3.74698 93.7406C24.8699 88.2494 46.2008 83.6209 67.6999 79.8644C69.3348 79.5788 68.6417 77.088 67.013 77.3728C45.5139 81.1301 24.1829 85.7578 3.05999 91.2491C3.60497 91.6643 4.15002 92.0796 4.69577 92.4948C4.20606 83.3645 3.71712 74.2342 3.22818 65.1039C3.01402 61.1125 2.274 56.8156 2.62401 52.8357C2.99245 48.6478 5.73505 48.3208 8.85831 47.2501C11.2555 46.428 13.6526 45.6067 16.0497 44.7846C17.6141 44.2488 16.9424 41.7519 15.3635 42.2931Z" fill="#94C6E4"/>
<path d="M69.7286 44.9812C65.4463 43.2572 58.2986 44.5697 59.3409 50.6873C59.7355 53.0023 61.4579 53.8413 63.4383 54.6449C66.5746 55.9183 67.2839 60.4025 63.4682 61.3236C60.3626 62.0728 58.1036 59.3141 58.5772 56.2822C58.8313 54.6557 56.342 53.9549 56.0857 55.5952C55.127 61.7335 62.2102 67.4274 67.221 62.1488C69.1622 60.1039 69.285 56.7228 67.6285 54.4661C66.7121 53.218 65.5169 52.7122 64.1253 52.1541C62.4097 51.4664 61.1978 49.2473 62.7928 47.6231C64.4999 45.8846 67.1825 46.7251 69.0416 47.4735C70.5837 48.0937 71.2538 45.5952 69.7286 44.9812Z" fill="#F3A9B1"/>
<path d="M63.5411 39.9354C62.5295 49.045 61.2784 58.1215 59.79 67.1651C59.5221 68.7916 62.0114 69.4909 62.2816 67.8521C63.8075 58.5806 65.0878 49.2745 66.1248 39.9354C66.3075 38.2859 63.7231 38.2989 63.5411 39.9354Z" fill="#F3A9B1"/>
<path d="M18.5459 40.1964C23.5574 40.6193 28.2627 36.905 28.9742 31.9173C29.1032 31.0139 27.7199 30.6232 27.5902 31.5358C26.9623 35.9371 22.9856 39.1356 18.5459 38.761C17.6256 38.6827 17.6309 40.1188 18.5459 40.1964Z" fill="#94C6E4"/>
<path d="M17.3615 65.0042C22.614 63.4461 23.9834 70.8516 23.3348 74.4109C23.1705 75.3143 24.5529 75.7012 24.7187 74.7924C25.5638 70.1531 23.4069 61.7129 16.9792 63.6195C16.0965 63.882 16.4727 65.2675 17.3615 65.0042Z" fill="#94C6E4"/>
<path d="M107.681 74.805C107.536 69.1594 113.699 67.4454 118.117 66.453C119.018 66.2503 118.636 64.8664 117.735 65.069C112.642 66.2135 106.083 68.4556 106.245 74.805C106.268 75.7268 107.704 75.7299 107.681 74.805Z" fill="#94C6E4"/>
<path d="M106.358 32.4166C105.212 39.3048 111.287 44.948 118.082 43.0982C118.972 42.8556 118.594 41.4709 117.7 41.7142C112.052 43.2517 106.772 38.6355 107.743 32.7988C107.892 31.8946 106.509 31.5063 106.358 32.4166Z" fill="#94C6E4"/>
<path d="M1.28461 59.4977C8.20814 58.7892 11.5371 52.2034 10.8026 45.7773C10.6989 44.87 9.26204 44.8592 9.3672 45.7773C10.0005 51.3169 7.46436 57.4298 1.28461 58.0623C0.374261 58.156 0.36505 59.5921 1.28461 59.4977Z" fill="#94C6E4"/>
<path d="M2.93645 83.2019C7.53576 81.8633 11.8073 85.2398 11.584 90.0119C11.541 90.9352 12.9763 90.9329 13.0193 90.0119C13.2872 84.3049 8.02542 80.226 2.55491 81.818C1.6699 82.0759 2.04683 83.4614 2.93645 83.2019Z" fill="#94C6E4"/>
<path d="M5.0027 57.8603C5.11016 61.6698 5.15628 65.4785 5.10793 69.2895C5.08567 71.0672 5.04653 72.8449 4.98743 74.6226C4.95366 75.6381 4.91447 76.6537 4.86918 77.6684C4.5752 78.9771 4.86385 80.1745 5.73505 81.2599C6.22092 80.4716 4.97976 79.7493 4.49542 80.5353C4.46548 80.5836 4.43548 80.632 4.40631 80.6803C4.18602 81.038 4.35955 81.4333 4.66352 81.6621C4.72262 81.7066 4.78244 81.7519 4.84154 81.7964C5.13706 82.019 5.66673 81.857 5.82331 81.5385C7.10286 78.9418 6.44423 74.4315 6.50487 71.5746C6.60235 67.0022 6.56627 62.4305 6.43732 57.8596C6.41199 56.9392 4.9766 56.9354 5.0027 57.8603Z" fill="#94C6E4"/>
<path d="M112.625 43.7565C112.655 51.8276 110.784 59.8211 110.51 67.8868C110.484 68.6497 111.465 68.7933 111.847 68.2491C112.301 67.602 112.312 67.5797 112.229 66.7922C112.133 65.8834 110.696 65.8734 110.793 66.7922C110.731 67.0363 110.67 67.2804 110.607 67.5253C111.053 67.6458 111.499 67.767 111.945 67.8875C112.218 59.8219 114.088 51.8283 114.059 43.7573C114.057 42.8331 112.622 42.8316 112.625 43.7565Z" fill="#94C6E4"/>
<path d="M20.7635 39.7697C20.4626 48.1056 19.9168 56.4253 19.1247 64.7297C19.0372 65.6485 20.4733 65.6424 20.5601 64.7297C21.3514 56.4253 21.8979 48.1063 22.1988 39.7697C22.2318 38.8455 20.7965 38.8471 20.7635 39.7697Z" fill="#94C6E4"/>
<path d="M23.1483 70.1426C51.1963 72.5397 79.6949 71.2348 107.821 71.2133C108.745 71.2126 108.746 69.7772 107.821 69.778C79.6949 69.7995 51.1971 71.1043 23.1483 68.7072C22.228 68.6289 22.2334 70.0643 23.1483 70.1426Z" fill="#94C6E4"/>
<path d="M24.8461 36.2499C39.1713 37.1833 53.4959 38.1167 67.8211 39.0501C81.319 39.9297 94.8767 40.9813 108.279 38.5481C109.186 38.383 108.801 36.9999 107.897 37.1641C94.1374 39.6626 80.1645 38.4191 66.3136 37.5172C52.4911 36.6168 38.6686 35.7157 24.8468 34.8153C23.9234 34.7547 23.9273 36.1908 24.8461 36.2499Z" fill="#94C6E4"/>
<path d="M10.2982 50.0416C12.4566 50.3839 14.5782 50.3409 16.7175 49.8911C17.6209 49.7015 17.2386 48.3168 16.3359 48.5072C14.4615 48.9009 12.5725 48.9577 10.6797 48.6576C9.77623 48.5141 9.3871 49.8965 10.2982 50.0416Z" fill="#94C6E4"/>
<path d="M11.2984 86.1767C22.7944 82.1907 34.6105 79.3599 46.6714 77.7426C47.5733 77.6213 47.5856 76.1844 46.6714 76.3072C34.4784 77.9422 22.5419 80.7622 10.917 84.7928C10.0496 85.0937 10.4219 86.4807 11.2984 86.1767Z" fill="#94C6E4"/>
</svg>
