<svg width="120" height="120" viewBox="0 0 120 120" fill="none" xmlns="http://www.w3.org/2000/svg">
<g clip-path="url(#clip0_7498_309)">
<mask id="mask0_7498_309" style="mask-type:luminance" maskUnits="userSpaceOnUse" x="-19" y="-14" width="158" height="148">
<path d="M139 -14H-19V134H139V-14Z" fill="white"/>
</mask>
<g mask="url(#mask0_7498_309)">
<path d="M35.6183 28.0047C33.21 28.388 31.0678 30.8232 31.0013 33.3587C30.9418 35.6798 33 37.3088 35.1913 36.9506C37.533 36.5677 39.1712 34.2455 38.9857 31.8643C38.9087 30.8612 37.47 27.1577 36.0103 28.631C35.7093 28.9337 36.1714 29.4068 36.4724 29.1041C37.1655 28.4059 38.2296 31.2008 38.2856 31.5225C38.4396 32.3714 38.3171 33.295 37.9391 34.0666C37.211 35.5581 35.6358 36.5909 33.9836 36.2649C29.3491 35.3495 32.5484 29.1663 35.7933 28.6499C36.2064 28.5837 36.0313 27.9389 35.6183 28.0047Z" fill="#F3A9B1"/>
<path d="M83.7681 31.0065C74.68 30.9643 66.974 29.5498 58.141 28.1995C52.867 27.3954 47.342 30.6576 43.4759 32.0059C42.2765 32.4267 43.8651 33.4326 45.0552 33.0178C47.5775 32.1392 50.0981 30.9987 52.8414 30.3055C57.6497 29.0862 61.5776 30.2926 66.3888 30.9993C72.3482 31.8783 78.2942 32.2329 84.2914 32.2627C85.7805 32.2677 85.2468 31.0173 83.7681 31.0065Z" fill="#F3A9B1"/>
<path d="M83.7681 36.0065C74.68 35.9643 66.974 34.5498 58.141 33.1995C52.867 32.3954 47.342 35.6576 43.4759 37.0059C42.2765 37.4267 43.8651 38.4326 45.0552 38.0178C47.5775 37.1392 50.0981 35.9987 52.8414 35.3055C57.6497 34.0862 61.5776 35.2926 66.3888 35.9993C72.3482 36.8783 78.2942 37.2329 84.2914 37.2627C85.7805 37.2677 85.2468 36.0173 83.7681 36.0065Z" fill="#F3A9B1"/>
<path d="M40.9114 21.4218C39.5414 23.4438 38.1714 25.4647 36.8014 27.4857C35.6614 29.1597 34.5214 30.7518 34.0314 32.7388C33.7414 33.9068 35.5514 34.4057 35.8314 33.2357C36.3514 31.1517 37.7113 29.4637 38.8913 27.7167C40.1013 25.9327 41.3214 24.1498 42.5314 22.3658C43.2014 21.3678 41.5814 20.4308 40.9114 21.4218Z" fill="#F3A9B1"/>
<path d="M34.9503 32.2878C34.4271 29.683 33.8037 27.1079 33.0784 24.5618C32.8916 23.914 31.8852 24.2233 32.0729 24.8716C32.7982 27.4177 33.4217 29.9927 33.942 32.6026C34.0769 33.2677 35.0842 32.9524 34.9503 32.2878Z" fill="#F3A9B1"/>
<path d="M32.6183 48.0047C30.21 48.388 28.0678 50.8232 28.0013 53.3587C27.9418 55.6798 30 57.3088 32.1913 56.9506C34.533 56.5677 36.1712 54.2455 35.9857 51.8643C35.9087 50.8612 34.47 47.1577 33.0103 48.631C32.7093 48.9337 33.1714 49.4068 33.4724 49.1041C34.1655 48.4059 35.2296 51.2008 35.2856 51.5225C35.4396 52.3714 35.3171 53.295 34.9391 54.0666C34.211 55.5581 32.6358 56.5909 30.9836 56.2649C26.3491 55.3495 29.5484 49.1663 32.7933 48.6499C33.2064 48.5837 33.0313 47.9389 32.6183 48.0047Z" fill="#F3A9B1"/>
<path d="M80.7681 51.0065C71.68 50.9643 63.974 49.5498 55.141 48.1995C49.867 47.3954 44.342 50.6576 40.4759 52.0059C39.2765 52.4267 40.8651 53.4326 42.0552 53.0178C44.5775 52.1392 47.0981 50.9987 49.8414 50.3055C54.6497 49.0862 58.5776 50.2926 63.3888 50.9993C69.3482 51.8783 75.2942 52.2329 81.2914 52.2627C82.7805 52.2677 82.2468 51.0173 80.7681 51.0065Z" fill="#F3A9B1"/>
<path d="M80.7681 56.0065C71.68 55.9643 63.974 54.5498 55.141 53.1995C49.867 52.3954 44.342 55.6576 40.4759 57.0059C39.2765 57.4267 40.8651 58.4326 42.0552 58.0178C44.5775 57.1392 47.0981 55.9987 49.8414 55.3055C54.6497 54.0862 58.5776 55.2926 63.3888 55.9993C69.3482 56.8783 75.2942 57.2329 81.2914 57.2627C82.7805 57.2677 82.2468 56.0173 80.7681 56.0065Z" fill="#F3A9B1"/>
<path d="M37.9114 41.4218C36.5414 43.4438 35.1714 45.4647 33.8014 47.4857C32.6614 49.1597 31.5214 50.7518 31.0314 52.7388C30.7414 53.9068 32.5514 54.4057 32.8314 53.2357C33.3514 51.1517 34.7113 49.4637 35.8913 47.7167C37.1013 45.9327 38.3214 44.1498 39.5314 42.3658C40.2014 41.3678 38.5814 40.4308 37.9114 41.4218Z" fill="#F3A9B1"/>
<path d="M31.9503 52.2878C31.4271 49.683 30.8037 47.1079 30.0784 44.5618C29.8916 43.914 28.8852 44.2233 29.0729 44.8716C29.7982 47.4177 30.4217 49.9927 30.942 52.6026C31.0769 53.2677 32.0842 52.9524 31.9503 52.2878Z" fill="#F3A9B1"/>
<path d="M30.6183 66.0047C28.21 66.388 26.0678 68.8232 26.0013 71.3587C25.9418 73.6798 28 75.3088 30.1913 74.9506C32.533 74.5677 34.1712 72.2455 33.9857 69.8643C33.9087 68.8612 32.47 65.1577 31.0103 66.631C30.7093 66.9337 31.1714 67.4068 31.4724 67.1041C32.1655 66.4059 33.2296 69.2008 33.2856 69.5225C33.4396 70.3714 33.3171 71.295 32.9391 72.0666C32.211 73.5581 30.6358 74.5909 28.9836 74.2649C24.3491 73.3495 27.5484 67.1663 30.7933 66.6499C31.2064 66.5837 31.0313 65.9389 30.6183 66.0047Z" fill="#F3A9B1"/>
<path d="M78.7681 69.0065C69.68 68.9643 61.974 67.5498 53.141 66.1995C47.867 65.3954 42.342 68.6576 38.4759 70.0059C37.2765 70.4267 38.8651 71.4326 40.0552 71.0178C42.5775 70.1392 45.0981 68.9987 47.8414 68.3055C52.6497 67.0862 56.5776 68.2926 61.3888 68.9993C67.3482 69.8783 73.2942 70.2329 79.2914 70.2627C80.7805 70.2677 80.2468 69.0173 78.7681 69.0065Z" fill="#F3A9B1"/>
<path d="M78.7681 74.0065C69.68 73.9643 61.974 72.5498 53.141 71.1995C47.867 70.3954 42.342 73.6576 38.4759 75.0059C37.2765 75.4267 38.8651 76.4326 40.0552 76.0178C42.5775 75.1392 45.0981 73.9987 47.8414 73.3055C52.6497 72.0862 56.5776 73.2926 61.3888 73.9993C67.3482 74.8783 73.2942 75.2329 79.2914 75.2627C80.7805 75.2677 80.2468 74.0173 78.7681 74.0065Z" fill="#F3A9B1"/>
<path d="M35.9114 59.4218C34.5414 61.4438 33.1714 63.4647 31.8014 65.4857C30.6614 67.1597 29.5214 68.7518 29.0314 70.7388C28.7414 71.9068 30.5514 72.4057 30.8314 71.2357C31.3514 69.1517 32.7113 67.4637 33.8913 65.7167C35.1013 63.9327 36.3214 62.1498 37.5314 60.3658C38.2014 59.3678 36.5814 58.4308 35.9114 59.4218Z" fill="#F3A9B1"/>
<path d="M29.9503 70.2878C29.4271 67.683 28.8037 65.1079 28.0784 62.5618C27.8916 61.914 26.8852 62.2233 27.0729 62.8716C27.7982 65.4177 28.4217 67.9927 28.942 70.6026C29.0769 71.2677 30.0842 70.9524 29.9503 70.2878Z" fill="#F3A9B1"/>
<path d="M15.5501 22.2739C14.1801 42.7589 12.8001 63.2429 11.4301 83.7279C11.1101 88.5709 10.46 93.5059 10.45 98.3599C10.44 100.813 10.72 102.954 13.07 104.215C17.52 106.595 25.1601 106.109 30.0601 106.494C44.8001 107.654 59.61 108.027 74.33 109.478C79.24 109.961 85.89 112.709 88.51 107.214C92.38 99.1219 94.56 89.7269 96.58 81.0299C101.43 60.1499 103.3 38.7289 105.14 17.4199C105.2 16.7289 104.58 15.9389 103.9 15.7969C75.76 9.87093 46.15 10.5689 17.53 10.0169C16.57 9.99793 15.92 10.8059 15.85 11.6999C15.57 15.2229 15.29 18.7459 15.02 22.2689C14.85 24.4299 18.21 24.4179 18.38 22.2689C18.66 18.7459 18.94 15.2229 19.21 11.6999C18.65 12.2609 18.09 12.8219 17.53 13.3829C45.84 13.9289 75.18 13.1819 103.01 19.0429C102.6 18.5019 102.19 17.9609 101.77 17.4199C100.3 34.5269 98.81 51.6689 95.72 68.5769C94.25 76.6059 92.44 84.5789 90.09 92.3979C89.04 95.8839 88.24 100.488 86.33 103.572C83.75 107.737 80.72 106.8 76.73 106.359C63.99 104.956 51.15 104.531 38.37 103.712C32.49 103.336 26.59 102.939 20.74 102.246C19.51 102.1 18.08 102.11 16.91 101.737C14.19 100.873 14.03 99.1219 13.95 96.4089C13.81 91.9199 14.56 87.2319 14.86 82.7519C16.21 62.5929 17.57 42.4339 18.92 22.2739C19.07 20.1119 15.7001 20.1209 15.5501 22.2739Z" fill="#94C6E4"/>
<path d="M16.0401 14.676C13.8101 15.61 11.3601 16.711 10.2601 19.024C9.2601 21.129 9.8401 23.608 11.3801 25.292C14.8801 29.104 22.84 28.683 26.83 25.879C28.59 24.643 26.9101 21.723 25.1301 22.973C22.9401 24.514 19.21 24.942 16.57 24.4C15.15 24.108 13.0901 23.068 13.1001 21.34C13.1101 19.499 15.5401 18.507 16.9301 17.922C18.9001 17.098 18.0401 13.84 16.0401 14.676Z" fill="#94C6E4"/>
<path d="M15.0502 30.5671C10.5102 28.9911 7.21016 34.1321 9.24016 38.0651C11.9902 43.4121 19.4902 42.9421 24.4202 41.7801C26.5302 41.2841 25.6402 38.0381 23.5302 38.5341C21.0502 39.1171 18.2902 39.4981 15.7802 38.8791C14.7002 38.6141 13.5002 38.1681 12.7502 37.3041C11.5702 35.9441 11.7502 32.9791 14.1602 33.8131C16.2102 34.5251 17.0902 31.2741 15.0502 30.5671Z" fill="#94C6E4"/>
<path d="M15.92 45.8436C11.61 45.5616 6.86994 48.7356 8.12994 53.5686C8.66994 55.6676 10.33 56.9635 12.39 57.3995C15.18 57.9865 18.1599 58.0546 20.9799 58.3536C23.1299 58.5806 23.1199 55.2126 20.9799 54.9866C19.4399 54.8246 17.8999 54.6616 16.3699 54.4996C15.0999 54.3656 12.95 54.5546 11.93 53.6556C10.97 52.8135 11.2299 51.2396 11.9799 50.3766C12.9399 49.2626 14.57 49.1216 15.92 49.2096C18.09 49.3516 18.08 45.9846 15.92 45.8436Z" fill="#94C6E4"/>
<path d="M12.8902 61.868C8.83018 60.172 5.20015 64.863 6.61015 68.616C8.50015 73.641 14.3202 73.742 18.7802 73.152C20.8902 72.872 20.9202 69.502 18.7802 69.786C16.4502 70.094 13.6702 70.589 11.5202 69.359C10.6302 68.851 9.53013 67.84 9.59013 66.714C9.66013 65.445 10.8402 64.633 12.0002 65.114C13.9902 65.947 14.8602 62.691 12.8902 61.868Z" fill="#94C6E4"/>
<path d="M13.2601 78.0375C10.3401 74.6735 4.54008 77.4246 5.92008 81.8946C7.44008 86.8066 14.81 86.4336 18.74 86.1146C20.88 85.9406 20.9 82.5725 18.74 82.7485C16.94 82.8945 15.0901 83.0775 13.2901 82.8505C12.3801 82.7355 11.29 82.4966 10.47 82.0626C10 81.8476 9.59004 81.5375 9.25004 81.1325C9.63004 79.6655 10.17 79.4265 10.88 80.4175C12.3 82.0575 14.6701 79.6685 13.2601 78.0375Z" fill="#94C6E4"/>
<path d="M11.0099 88.3672C6.87991 86.6412 3.7799 91.6322 5.7499 95.1162C8.5799 100.154 15.8399 98.4312 20.4599 98.0412C22.6099 97.8602 22.6299 94.4932 20.4599 94.6752C18.3199 94.8552 16.1699 95.0972 14.0199 95.1992C12.8899 95.2532 11.7299 95.2982 10.6499 94.8992C10.0499 94.7702 9.52987 94.4762 9.08987 94.0162C8.01987 92.1482 8.35989 91.3472 10.1099 91.6132C12.1099 92.4482 12.9799 89.1922 11.0099 88.3672Z" fill="#94C6E4"/>
<path d="M103.09 20.6579C104.99 21.3089 107.09 21.4189 107.77 23.5989C108.11 24.6849 107.18 28.2209 107.03 29.3589C106.5 33.4349 105.93 37.5059 105.34 41.5749C104.28 48.9179 103.13 56.2489 101.89 63.5659C100.7 70.5639 99.44 77.5479 98.09 84.5169C97.36 88.3179 96.6001 92.1149 95.8101 95.9069C95.4701 97.5889 94.3101 109.856 89.1801 105.378C88.2801 104.59 86.95 105.908 87.86 106.701C91.13 109.561 94.25 109.322 95.75 105.043C98.77 96.4669 99.68 86.3429 101.33 77.4059C104.74 58.9199 107.57 40.3329 109.88 21.6779C109.93 21.2579 109.54 20.8979 109.19 20.7759C107.32 20.1349 105.45 19.4949 103.58 18.8539C102.44 18.4629 101.95 20.2689 103.09 20.6579Z" fill="#94C6E4"/>
<path d="M106.49 21.0779C107.17 23.5359 107.84 25.9929 108.52 28.4509C109.09 28.2099 109.66 27.9709 110.23 27.7299C108.83 25.7959 107.43 23.8609 106.02 21.9259C105.42 21.0919 104.06 21.5629 104.31 22.6459C104.77 24.5879 105.23 26.5309 105.69 28.4729C106.26 28.2319 106.83 27.9929 107.4 27.7529C106.45 26.3949 105.49 25.0369 104.54 23.6789C104.04 22.9659 102.77 23.1579 102.8 24.1509C102.88 27.2869 103.42 29.9599 104.63 32.8839C105.15 32.5809 105.67 32.2769 106.19 31.9739C105.74 31.0529 105.29 30.1309 104.85 29.2089C104.61 28.1789 102.99 28.4079 103.01 29.4579C103.06 32.3059 103.45 34.9129 104.24 37.6629C104.57 38.8349 106.25 38.3349 106.04 37.1659C105.82 35.9649 105.6 34.7639 105.38 33.5629C104.78 33.7289 104.17 33.8949 103.57 34.0609C104.05 36.2469 104.52 38.4329 105 40.6199C105.6 40.4539 106.2 40.2879 106.8 40.1229C106.23 38.5879 105.65 37.8249 104.27 36.8759C103.71 36.4929 102.8 36.9949 102.86 37.6839C103.07 40.0949 103.55 42.2299 104.45 44.4919C105.02 44.2519 105.59 44.0119 106.16 43.7709C105.29 42.6039 104.51 41.8949 103.21 41.2249C102.53 40.8709 101.9 41.3269 101.81 42.0319C101.41 45.0729 101.68 47.6249 102.67 50.5209C103.24 50.2809 103.81 50.0409 104.38 49.8009C103.43 48.3039 103.64 48.4819 102.09 47.6329C101.62 47.3769 100.8 47.5669 100.71 48.1919C100.28 51.2439 100.71 53.6649 102.3 56.3379C102.83 57.2219 104.36 56.6479 104.01 55.6179C103.4 53.8329 103.55 54.0729 102.26 52.7039C101.65 52.0689 100.73 52.6049 100.66 53.3649C100.39 56.2569 100.57 58.8839 101.17 61.7219C101.77 61.5569 102.37 61.3909 102.97 61.2249C102.55 59.6559 102.65 59.8339 101.52 58.6739C100.96 58.1009 99.9001 58.5239 99.9201 59.3349C99.9901 62.4129 100.19 65.4539 100.55 68.5109C101.16 68.4279 101.77 68.3449 102.39 68.2629C101.92 67.1339 101.45 66.0039 100.98 64.8749C100.61 63.9799 99.1001 63.9749 99.1401 65.1239C99.2401 68.0689 99.3401 71.0149 99.4301 73.9599C100.04 73.8769 100.66 73.7939 101.27 73.7109C100.96 72.0319 100.44 71.0859 99.26 69.8729C98.67 69.2649 97.7101 69.7509 97.6601 70.5339C97.4201 74.7849 97.3301 79.0239 97.3901 83.2819C97.9701 83.1239 98.55 82.9669 99.13 82.8099C98.63 82.0859 98.1301 81.3629 97.6401 80.6399C97.1001 79.8549 95.9801 80.1759 95.8901 81.1119C95.5401 85.1609 95.19 89.2089 94.84 93.2579C95.42 93.1009 96 92.9429 96.58 92.7859C95.79 90.9639 94.99 89.1419 94.2 87.3199C93.82 86.4519 92.43 86.9139 92.46 87.7919C92.6 91.9879 92.74 96.1839 92.88 100.38C93.46 100.223 94.04 100.066 94.62 99.9079C93.81 98.4629 93 97.0169 92.19 95.5719C91.75 94.7849 90.4 95.1059 90.45 96.0429C90.66 99.8549 90.87 103.667 91.08 107.479C91.66 107.321 92.25 107.164 92.83 107.007C92.09 105.347 91.32 104.035 90.24 102.572C89.72 101.859 88.51 102.049 88.5 103.043C88.48 104.657 88.47 106.27 88.45 107.883C88.44 109.087 90.31 109.088 90.32 107.883C90.34 106.27 90.35 104.657 90.37 103.043C89.79 103.201 89.21 103.358 88.63 103.516C89.71 104.979 90.47 106.291 91.21 107.951C91.59 108.803 93 108.369 92.95 107.479C92.74 103.667 92.53 99.8549 92.32 96.0429C91.74 96.2009 91.16 96.3579 90.58 96.5159C91.39 97.9609 92.2 99.4069 93.01 100.852C93.45 101.649 94.78 101.311 94.75 100.38C94.61 96.1839 94.47 91.9879 94.33 87.7919C93.75 87.9489 93.16 88.1059 92.58 88.2639C93.38 90.0859 94.17 91.9079 94.97 93.7299C95.37 94.6669 96.64 94.0709 96.71 93.2579C97.06 89.2089 97.41 85.1609 97.76 81.1119C97.18 81.2699 96.6001 81.4269 96.0201 81.5839C96.5201 82.3069 97.0201 83.0299 97.5201 83.7529C98.0201 84.4819 99.2701 84.2639 99.26 83.2819C99.2 79.0239 99.2901 74.7849 99.5301 70.5339C99.0001 70.7549 98.47 70.9749 97.94 71.1949C98.45 72.1999 98.96 73.2039 99.47 74.2079C99.66 75.2489 101.34 75.0039 101.3 73.9599C101.21 71.0149 101.11 68.0689 101.01 65.1239C100.4 65.2069 99.7901 65.2899 99.1801 65.3729C99.6401 66.5009 100.11 67.6309 100.58 68.7599C100.94 69.6259 102.55 69.6649 102.42 68.5109C102.06 65.4529 101.86 62.4119 101.79 59.3349C101.26 59.5549 100.73 59.7749 100.19 59.9959C100.52 60.5709 100.84 61.1469 101.17 61.7219C101.48 62.8919 103.22 62.3959 102.97 61.2249C102.41 58.5749 102.28 56.0489 102.53 53.3649C102 53.5849 101.47 53.8059 100.93 54.0259C101.36 54.7229 101.78 55.4179 102.2 56.1149C102.77 55.8749 103.34 55.6349 103.91 55.3949C102.5 53.3959 102.03 51.1609 102.52 48.6889C102.06 48.8749 101.6 49.0619 101.14 49.2479C101.68 49.7469 102.22 50.2459 102.76 50.7449C103.31 51.6039 104.83 51.0679 104.47 50.0239C103.54 47.3119 103.31 44.8449 103.68 42.0319C103.21 42.3009 102.74 42.5709 102.27 42.8399C103.03 43.4649 103.79 44.0899 104.55 44.7149C105.12 45.4769 106.69 45.0709 106.26 43.9949C105.39 41.8159 104.94 40.1029 104.73 37.6839C104.26 37.9529 103.79 38.2219 103.32 38.4909C103.88 39.2009 104.44 39.9099 105 40.6199C105.42 41.7359 107.06 41.3149 106.8 40.1229C106.33 37.9359 105.85 35.7499 105.38 33.5629C105.12 32.3779 103.36 32.8899 103.57 34.0609C103.79 35.2609 104.01 36.4619 104.24 37.6629C104.84 37.4969 105.44 37.3319 106.04 37.1659C105.31 34.6139 104.93 32.1229 104.88 29.4579C104.27 29.5409 103.66 29.6239 103.04 29.7069C103.38 31.1949 103.89 32.1369 104.87 33.2959C105.45 33.9859 106.78 33.2479 106.43 32.3869C105.32 29.6909 104.74 27.0859 104.67 24.1509C104.08 24.3089 103.5 24.4659 102.92 24.6229C103.88 25.9809 104.83 27.3389 105.79 28.6959C106.38 29.5449 107.75 29.0479 107.49 27.9759C107.04 26.0339 106.58 24.0909 106.12 22.1489C105.55 22.3889 104.98 22.6289 104.41 22.8699C105.81 24.8049 107.21 26.7389 108.62 28.6739C109.21 29.4899 110.62 29.0399 110.32 27.9539C109.65 25.4959 108.97 23.0389 108.29 20.5809C107.97 19.4219 106.17 19.9139 106.49 21.0779Z" fill="#94C6E4"/>
</g>
</g>
<defs>
<clipPath id="clip0_7498_309">
<rect width="120" height="120" fill="white"/>
</clipPath>
</defs>
</svg>
